<svg width="120" height="120" viewBox="0 0 120 120" fill="none" xmlns="http://www.w3.org/2000/svg">
<g opacity="0.25">
<mask id="mask0" mask-type="alpha" maskUnits="userSpaceOnUse" x="0" y="30" width="120" height="60">
<path d="M0 30.1753H120V89.9779H0V30.1753Z" fill="white"/>
</mask>
<g mask="url(#mask0)">
<path fill-rule="evenodd" clip-rule="evenodd" d="M11.3672 89.9958C11.449 86.0543 11.449 82.0677 11.3672 78.0317C13.3983 78.0854 15.7216 78.0854 17.8576 78.0317C20.3079 78.0317 21.5824 79.5228 21.5824 81.0217C21.5824 82.1291 21.0616 83.1417 20.2609 83.6006C21.6353 84.0077 22.4268 85.2021 22.4268 86.6169C22.4268 88.9014 20.7635 89.9958 18.6883 89.9958H11.3672ZM18.0057 84.8158C19.4405 84.8584 20.1564 85.4654 20.1564 86.4021C20.1564 87.3773 19.5209 87.8943 18.062 87.9647C16.7161 88.0277 15.189 88.0277 13.7357 87.9647C13.6813 86.8954 13.6813 85.9103 13.7357 84.8158C15.1313 84.778 16.742 84.778 18.0057 84.8158ZM17.8242 79.9936C18.8609 80.0588 19.3346 80.5854 19.3346 81.3625C19.3346 82.0458 18.9594 82.6758 17.9924 82.7288C17.0157 82.7803 14.7409 82.7866 13.7239 82.7288C13.6861 81.828 13.6861 80.9166 13.7239 79.9936C14.8727 79.9547 16.8613 79.9343 17.8242 79.9936Z" fill="#38374A"/>
<path fill-rule="evenodd" clip-rule="evenodd" d="M78.5628 87.908C78.5354 88.5954 78.5354 89.2906 78.5628 89.9958C75.2706 89.938 71.9787 89.938 68.688 89.9958C68.7565 86.0073 68.7547 82.0206 68.6865 78.0317C69.448 78.0595 70.2065 78.0595 70.9658 78.0317C70.901 81.324 70.901 84.6162 70.9658 87.908C73.4965 87.9566 76.0306 87.9566 78.5628 87.908Z" fill="#38374A"/>
<path fill-rule="evenodd" clip-rule="evenodd" d="M41.9918 78.0273C44.2318 80.6988 46.5492 83.3729 48.9421 86.0444C48.9996 83.3744 48.9981 80.7044 48.9407 78.0351C49.6114 78.0648 50.2925 78.0648 50.981 78.0351C50.9221 81.9762 50.9221 85.9625 50.981 89.997C50.3999 89.971 49.8203 89.971 49.2403 89.9999C46.9062 87.2055 44.4725 84.3784 41.9388 81.5203C41.8873 84.3466 41.8858 87.1707 41.9373 89.997C41.2818 89.971 40.6021 89.971 39.8984 89.997C39.9499 86.011 39.9499 82.0233 39.8984 78.0366C40.5962 78.0618 41.294 78.0592 41.9918 78.0273Z" fill="#38374A"/>
<path fill-rule="evenodd" clip-rule="evenodd" d="M36.1729 80.1195C33.5755 80.0603 30.951 80.0603 28.2933 80.1195C28.234 81.0203 28.234 81.9221 28.2933 82.8258C30.0699 82.8769 31.8681 82.8769 33.6859 82.8258C33.6588 83.5188 33.6588 84.2154 33.6859 84.9099C31.9107 84.8554 30.1125 84.8554 28.2933 84.9099C28.2399 85.9088 28.2399 86.9077 28.2933 87.9069C30.9644 87.9595 33.6377 87.9595 36.3077 87.9069C36.2818 88.6032 36.2818 89.2991 36.3077 89.9936C32.8777 89.9366 29.4462 89.9366 26.0166 89.9936C26.0788 86.0073 26.0788 82.0191 26.0166 78.0317C29.4418 78.0884 32.8262 78.0884 36.1729 78.0317C36.144 78.7284 36.144 79.4229 36.1729 80.1195Z" fill="#38374A"/>
<path fill-rule="evenodd" clip-rule="evenodd" d="M100.814 89.9903C100.87 88.2985 100.87 86.5833 100.814 84.8489C99.0569 82.5789 97.2239 80.3066 95.3154 78.0352C96.2506 78.0633 97.1858 78.0633 98.1217 78.0352C99.3247 79.5803 100.601 81.124 101.951 82.6678C103.295 81.124 104.572 79.5803 105.78 78.0352C106.716 78.0633 107.651 78.0633 108.585 78.0352C106.685 80.3066 104.851 82.5789 103.086 84.8489C103.03 86.5626 103.03 88.2774 103.086 89.9903C102.329 89.9652 101.572 89.9652 100.814 89.9903Z" fill="#38374A"/>
<path fill-rule="evenodd" clip-rule="evenodd" d="M91.9493 80.1195C89.3533 80.0603 86.727 80.0603 84.0707 80.1195C84.0133 81.0203 84.0133 81.9221 84.0707 82.8258C85.8478 82.8769 87.6463 82.8769 89.4641 82.8258C89.4352 83.5188 89.4352 84.2154 89.4641 84.9099C87.6885 84.8554 85.8885 84.8554 84.0707 84.9099C84.0182 85.9088 84.0182 86.9077 84.0707 87.9069C86.7422 87.9595 89.4137 87.9595 92.0856 87.9069C92.0582 88.6032 92.0582 89.2991 92.0856 89.9936C88.6556 89.9366 85.223 89.9366 81.793 89.9936C81.8552 86.0073 81.8552 82.0191 81.793 78.0317C85.2182 78.0884 88.6041 78.0884 91.9493 78.0317C91.9219 78.7284 91.9219 79.4229 91.9493 80.1195Z" fill="#38374A"/>
<path fill-rule="evenodd" clip-rule="evenodd" d="M58.8757 89.9936C58.9335 86.7414 58.9335 83.4492 58.8757 80.1195C57.4576 80.0573 56.0228 80.0573 54.5713 80.1195C54.5968 79.431 54.5968 78.7343 54.5713 78.0317C58.1994 78.0914 61.8291 78.0914 65.4583 78.0317C65.4313 78.7191 65.4313 79.4158 65.4583 80.1195C64.0235 80.0647 62.5887 80.0647 61.152 80.1195C61.0961 83.4117 61.0961 86.7036 61.152 89.9936C60.4031 89.9669 59.6431 89.9669 58.8757 89.9936Z" fill="#38374A"/>
<path fill-rule="evenodd" clip-rule="evenodd" d="M0 33.6475C0 33.6475 0.89 32.6046 1.14556 32.3138C1.40296 32.0234 1.59074 31.7994 1.76185 31.6297C1.93296 31.4586 2.12963 31.4164 2.29148 31.4331C2.45481 31.4497 4.19852 31.6375 4.66778 31.6905C5.13852 31.7405 7.2 31.8357 8.01889 31.8357C8.84074 31.8357 11.0007 31.8401 11.4563 31.8401C11.9119 31.8401 15.3433 31.6464 16.1059 31.589C16.8704 31.5316 21.2522 31.4753 22.3119 31.4586C23.3726 31.442 28.2796 31.6297 29.4937 31.6979C30.7078 31.766 34.0422 31.9371 35.1533 31.9038C36.2641 31.869 41.5133 31.6464 42.5559 31.6464C43.5989 31.6464 46.8819 31.8523 47.6159 31.9705C48.3515 32.0916 49.2067 32.3638 49.2067 32.3638C49.2067 32.3638 50.6085 31.7994 51.3274 31.5616C52.0448 31.3208 53.9263 30.7912 55.3626 30.5701C56.7974 30.346 58.3367 30.1753 59.8582 30.1753C61.3807 30.1753 63.5511 30.346 65.0389 30.6731C66.5252 30.9971 68.2356 31.5086 68.8863 31.766C69.5359 32.0234 70.9207 32.6546 70.9207 32.6546C70.9207 32.6546 71.9304 32.3471 72.7841 32.1594C73.6393 31.9705 74.9545 31.766 75.7067 31.716C76.4604 31.6631 77.0585 31.5949 77.9819 31.6131C78.9052 31.6297 81.1119 31.8523 81.7263 31.9205C82.3407 31.9886 83.7956 32.1594 85.2985 32.1427C86.3078 32.1323 89.5578 31.9886 90.4978 31.9371C91.4378 31.8857 97.0785 31.6297 98.2411 31.6131C99.4052 31.5949 104.5 31.9038 105.526 31.9538C106.552 32.0068 108.705 32.1083 109.372 32.0916C110.039 32.0734 112.28 31.9705 113.407 31.8523C114.535 31.7327 116.955 31.5331 117.366 31.5086C117.819 31.4846 118.015 31.4846 118.092 31.536C118.169 31.5871 118.879 32.2701 119.17 32.5953C119.46 32.9208 119.751 33.322 119.861 33.4505C119.973 33.5794 120.023 33.6308 119.99 33.6975C119.957 33.7671 119.751 34.1257 119.674 34.2194C119.596 34.3149 119.529 34.3571 119.434 34.4071C119.341 34.4601 118.34 34.9627 118.015 35.1005C117.691 35.2368 116.836 35.5953 116.836 35.5953C116.836 35.5953 117.084 36.1768 117.176 36.4338C117.271 36.6897 117.408 37.212 117.408 37.3753C117.408 37.5371 117.424 37.9038 117.382 37.9294C117.34 37.9568 116.836 38.2471 116.639 38.332C116.442 38.4168 115.699 38.7253 115.374 38.8116C115.05 38.8953 114.443 39.0586 114.443 39.0586C114.443 39.0586 114.485 39.5186 114.468 39.8016C114.45 40.0834 114.45 40.4101 114.382 40.7009C114.323 40.9534 114.126 41.2894 114.007 41.4438C113.886 41.5983 113.621 41.7434 113.433 41.836C113.276 41.9146 112.637 42.1101 112.322 42.1705C112.006 42.2294 111.57 42.299 111.382 42.3157C111.193 42.3323 111.039 42.3323 111.039 42.3323C111.039 42.3323 111.022 42.8894 110.996 43.136C110.972 43.3846 110.886 43.8201 110.827 44.0079C110.764 44.1971 110.595 44.5301 110.415 44.6831C110.236 44.8375 110.108 44.9312 109.8 44.9994C109.493 45.069 109.091 45.1612 108.705 45.2053C108.322 45.2475 107.586 45.3323 107.338 45.3505C107.09 45.3671 106.832 45.3764 106.832 45.3764C106.832 45.3764 106.644 46.0679 106.569 46.2827C106.491 46.4949 106.26 46.9579 106.098 47.1883C105.936 47.4197 105.653 47.7434 105.508 47.872C105.363 48.0009 105.132 48.1627 105.022 48.196C104.91 48.2309 104.373 48.2564 104.115 48.2564C103.858 48.2564 103.081 48.2564 102.696 48.2309C102.311 48.2053 101.892 48.1627 101.629 48.1371C101.404 48.116 101.226 48.069 101.226 48.069C101.226 48.069 101.14 48.5986 101.114 48.7364C101.088 48.8727 100.994 49.2057 100.893 49.4538C100.79 49.7005 100.661 49.8897 100.549 50.0001C100.446 50.1031 100.34 50.2242 100.021 50.2909C99.6959 50.3605 99.387 50.3771 99.1915 50.3846C98.9948 50.3938 97.7463 50.4271 97.4133 50.4271C97.0785 50.4271 96.4385 50.4194 96.207 50.4105C95.977 50.4027 95.6182 50.4105 95.6182 50.4105C95.6182 50.4105 95.5241 50.8038 95.4548 51.0264C95.3882 51.249 95.2411 51.6168 95.1567 51.7786C95.0715 51.9423 94.9552 52.1497 94.8144 52.2827C94.66 52.4283 94.5996 52.5234 94.3178 52.5568C94.0352 52.5901 93.6852 52.6157 93.3445 52.6083C93.0011 52.599 92.2489 52.5568 91.8993 52.5053C91.5482 52.4538 90.8304 52.316 90.6248 52.2571C90.4189 52.1979 90.2056 52.1042 90.2056 52.1042C90.2056 52.1042 90.0785 52.4979 89.9756 52.6764C89.8722 52.8564 89.6519 53.209 89.5048 53.3257C89.3263 53.4709 89.1293 53.719 88.7948 53.7616C88.4619 53.8053 88.1289 53.7449 87.8474 53.7023C87.5645 53.6601 86.95 53.5238 86.6848 53.4546C86.4185 53.386 85.7507 53.1894 85.5996 53.1468C85.4437 53.1046 85.2559 53.026 85.2559 53.026C85.2559 53.026 85.0744 53.3875 84.9485 53.5479C84.8293 53.7023 84.6159 53.9509 84.4537 54.0779C84.2904 54.2064 84 54.3957 83.8637 54.4123C83.727 54.429 83.5048 54.4123 83.2126 54.3701C82.9222 54.326 82.5722 54.2231 82.2745 54.1294C81.9744 54.0353 81.7263 53.9234 81.7263 53.9234C81.7263 53.9234 81.4022 54.8649 81.3163 55.0783C81.2296 55.2916 80.8119 56.1649 80.6559 56.4557C80.5278 56.7023 79.8344 57.8301 79.6222 58.139C79.3667 58.5157 78.3419 59.8068 78.0941 60.0534C77.8456 60.3016 77.4941 60.6786 77.2719 60.9086C77.0507 61.1386 76.1093 61.9771 75.6056 62.3801C75.1 62.7809 74.1856 63.4483 73.4774 63.8846C72.7659 64.3201 71.4763 65.0123 70.9119 65.269C70.3485 65.5253 69.6982 65.7901 69.6982 65.7901C69.6982 65.7901 69.4404 66.2775 69.3059 66.5864C69.1696 66.8931 68.92 67.3627 68.8593 67.4472C68.8004 67.5342 68.6882 67.5594 68.5611 67.5168C68.4326 67.4746 67.8163 67.2431 67.5863 67.1586C67.3563 67.072 66.8433 66.8583 66.8433 66.8583C66.8433 66.8583 66.5011 67.3627 66.38 67.5509C66.2604 67.7394 65.9274 68.2438 65.8685 68.3023C65.8082 68.3631 65.6793 68.339 65.6037 68.3116C65.5278 68.2857 64.8604 67.9197 64.7226 67.8409C64.5867 67.7657 64.013 67.4305 64.013 67.4305C64.013 67.4305 63.6889 67.8242 63.5178 68.0557C63.38 68.2423 62.9093 68.7827 62.867 68.8246C62.8244 68.8671 62.7563 68.8594 62.6552 68.8172C62.5522 68.7746 62.3552 68.6097 62.133 68.4475C61.9104 68.2857 61.5337 67.986 61.4137 67.9109C61.2944 67.8334 61.1837 67.7309 61.1837 67.7309C61.1837 67.7309 60.757 68.1497 60.6026 68.2949C60.4485 68.4405 60.073 68.8079 60.0215 68.8594C59.97 68.9094 59.8763 68.996 59.8763 68.996C59.8763 68.996 59.7989 69.0546 59.6959 69.0046C59.5944 68.9534 59.1589 68.5431 58.9696 68.3631C58.8152 68.216 58.37 67.7742 58.37 67.7742C58.37 67.7742 57.8326 68.1664 57.6526 68.2949C57.4726 68.4223 56.9941 68.7994 56.9096 68.8412C56.8248 68.8838 56.7037 68.8671 56.6356 68.7746C56.5674 68.679 56.0544 68.089 55.9604 67.9694C55.8667 67.8501 55.5411 67.4653 55.5411 67.4653C55.5411 67.4653 54.9085 67.8075 54.653 67.9364C54.3956 68.0649 54.0111 68.319 53.943 68.3464C53.8733 68.3723 53.7204 68.3723 53.6689 68.2857C53.6189 68.1997 53.2859 67.7227 53.1559 67.5342C53.0104 67.3201 52.7107 66.8583 52.7107 66.8583C52.7107 66.8583 52.1296 67.072 51.9252 67.1586C51.7207 67.2431 51.1048 67.4834 50.9944 67.5079C50.8822 67.5342 50.7204 67.5053 50.6767 67.4234C50.6174 67.3112 50.1982 66.5075 50.1119 66.3123C50.027 66.1142 49.8911 65.8234 49.8911 65.8234C49.8911 65.8234 49.2022 65.5505 48.7544 65.3453C48.2667 65.1223 47.2241 64.6109 46.7882 64.3701C46.3522 64.1327 45.6256 63.6964 45.1896 63.3957C44.7537 63.096 43.7533 62.362 43.3596 62.0197C42.9663 61.679 41.633 60.3534 41.3167 59.9946C41 59.636 40.4959 59.0271 40.0678 58.4475C39.6407 57.8649 39.3322 57.3275 39.0341 56.7631C38.7344 56.1986 38.5041 55.7294 38.2304 55.0527C37.9563 54.3775 37.7263 53.7523 37.6581 53.5238C37.5885 53.2923 37.5719 53.1971 37.5719 53.1971C37.5719 53.1971 36.7937 53.4546 36.2474 53.5831C35.6996 53.7101 35.0837 53.8901 34.5281 53.8568C33.9741 53.822 33.8711 53.7357 33.7333 53.6253C33.597 53.5149 33.4263 53.3164 33.237 53.0516C33.0493 52.7883 32.8707 52.4371 32.8707 52.4371C32.8707 52.4371 32.0152 52.6505 31.6822 52.7279C31.3496 52.8049 30.5626 52.9594 30.0919 53.0183C29.6222 53.079 29.0744 53.1379 28.8007 53.1046C28.5282 53.0683 28.3344 52.9623 28.0907 52.7534C27.8348 52.5309 27.75 52.3949 27.6215 52.2146C27.5215 52.0753 27.2719 51.5894 27.2189 51.4716C27.1689 51.352 27.1341 51.1975 27.1341 51.1975C27.1341 51.1975 26.1519 51.2142 25.8944 51.2142C25.637 51.2142 24.287 51.2068 24.013 51.1975C23.7407 51.1901 23.0052 51.1371 22.7052 51.0779C22.407 51.0171 22.2196 50.966 21.9363 50.589C21.6548 50.2153 21.5778 50.0353 21.467 49.7368C21.3552 49.4371 21.2689 49.1027 21.2689 49.1027C21.2689 49.1027 20.4063 49.0938 19.9444 49.0438C19.483 48.9909 18.5248 48.8816 18.0041 48.7953C17.4819 48.7105 16.6889 48.5731 16.4737 48.4957C16.2604 48.4201 16.1411 48.2383 15.9533 48.0342C15.7641 47.8283 15.5763 47.5557 15.4052 47.3001C15.2341 47.0427 14.8833 46.5205 14.8496 46.4449C14.8163 46.3675 14.7652 46.2827 14.7652 46.2827C14.7652 46.2827 13.8748 46.1964 13.483 46.1453C13.0878 46.0953 12.5159 45.9997 12.2511 45.9497C11.9859 45.8968 11.2944 45.7683 11.14 45.6927C10.987 45.6153 10.8585 45.5549 10.7207 45.2823C10.5844 45.0083 10.4922 44.4653 10.3785 43.999C10.2607 43.5131 10.1819 43.1194 10.1819 43.1194C10.1819 43.1194 9.46444 42.9316 8.89074 42.7775C8.31852 42.6231 8.15667 42.5716 7.76148 42.4534C7.36963 42.3323 6.99259 42.1871 6.77185 42.042C6.54926 41.8964 6.55667 41.6227 6.53259 41.4697C6.50667 41.3153 6.4463 40.6646 6.42963 40.4768C6.41148 40.289 6.42037 39.879 6.42037 39.879C6.42037 39.879 4.99333 39.2205 4.62556 39.0586C4.25778 38.8953 3.38593 38.4775 3.20556 38.3927C3.02704 38.3064 3.05296 38.1186 3.07852 37.9734C3.10259 37.8279 3.22407 37.2468 3.28444 36.9638C3.34333 36.682 3.43741 36.2205 3.45556 36.1601C3.47185 36.1008 3.47963 36.042 3.47963 36.042C3.47963 36.042 2.10222 35.3486 1.76185 35.1686C1.41963 34.9886 0.454074 34.5027 0.325185 34.4238C0.196667 34.3483 0.146667 34.1938 0.0862963 33.9805C0.0255556 33.7671 0 33.6475 0 33.6475Z" fill="#38374A"/>
</g>
<path fill-rule="evenodd" clip-rule="evenodd" d="M45.4279 42.255C45.5657 40.6765 47.5498 38.9099 47.2624 37.3039C47.0353 36.0325 45.4642 34.955 43.8857 34.708C42.9775 34.5662 39.9927 34.3432 39.3416 34.3221C38.5394 34.2965 36.3764 34.2543 35.7001 34.245C35.0249 34.2376 33.2375 34.2269 32.709 34.2102C32.1779 34.1936 31.5209 34.1847 30.6735 34.0391C29.8168 33.8925 29.2098 33.7139 28.3649 33.458C27.519 33.2021 26.8453 32.9962 26.1779 32.851C25.5105 32.7058 24.6646 32.5695 24.0831 32.518C23.5005 32.4665 22.3561 32.3817 21.4935 32.365C20.629 32.3484 18.5012 32.365 17.8153 32.3728C17.1327 32.3817 15.0124 32.4576 14.4568 32.4576C13.9012 32.4576 13.302 32.4499 13.0386 32.4665C12.7735 32.4832 12.8327 32.6121 12.7131 32.6288C12.592 32.6465 11.9442 32.6288 11.5764 32.6288C11.2086 32.6288 10.9346 32.6121 10.8061 32.6028C10.6772 32.595 10.4898 32.595 10.4898 32.595C10.4898 32.595 10.4653 32.7147 10.5938 32.748C10.7212 32.7828 11.0468 32.8088 11.1572 32.8176C11.2675 32.8269 12.1394 32.8858 12.4464 32.9025C12.7568 32.9191 13.2853 32.9191 13.6198 32.9462C13.9527 32.9721 14.5505 32.9721 14.9442 32.9795C15.3375 32.9888 16.9268 32.9795 17.5079 32.9962C18.0894 33.0143 19.1853 33.0143 19.7224 33.031C20.2612 33.0476 21.5357 33.0995 22.5364 33.2202C23.5368 33.3384 24.3479 33.458 25.3561 33.6988C26.319 33.9273 27.4601 34.2876 28.0157 34.4584C28.5712 34.6295 29.3416 34.8354 29.7409 34.9202C30.1435 35.0062 30.5038 35.0321 30.6053 35.1184C30.7083 35.2017 30.7083 35.2969 30.649 35.4258C30.5886 35.5543 30.5372 35.5965 30.4946 35.7162C30.4509 35.8358 30.4086 35.9299 30.4086 35.9299H30.0498C30.0498 35.9299 30.1179 35.8617 30.1268 35.7843C30.1346 35.7073 29.9227 35.5784 29.6986 35.5362C29.4775 35.4921 28.4605 35.3999 28.1957 35.365C27.9294 35.3302 26.9212 35.2365 26.3731 35.2439C25.8268 35.2547 23.6898 35.2273 23.1416 35.2439C22.5953 35.2636 20.5957 35.2199 20.0905 35.2365C19.5864 35.2547 17.8261 35.2365 17.3461 35.2273C16.8679 35.2199 15.7553 35.2199 15.312 35.2199C14.8672 35.2199 13.3623 35.2199 12.8327 35.2106C12.3027 35.2017 10.4898 35.1595 10.1398 35.1684C9.78902 35.1773 8.79753 35.1425 8.30235 35.135C7.80605 35.1258 6.10457 35.0747 5.64309 35.0747C5.18309 35.0747 4.60161 35.0395 4.42013 34.9899C4.24161 34.9365 3.26679 34.4328 2.87457 34.2376C2.47976 34.0391 1.73642 33.6562 1.5305 33.5532C1.32642 33.4502 1.12939 33.3128 1.06902 33.2869C1.01013 33.2628 0.736053 33.5276 0.660498 33.6291C0.58309 33.7321 0.445312 33.6291 0.445312 33.6291C0.445312 33.6291 1.38531 32.5862 1.57457 32.365C1.76235 32.1425 1.99383 31.8428 2.09531 31.8099C2.19828 31.7747 2.60828 31.7747 2.85642 31.8006C3.10494 31.8265 4.68494 31.9625 4.99383 31.9884C5.30087 32.0139 6.64346 32.0565 7.00235 32.0743C7.36235 32.0913 9.06235 32.1002 9.62679 32.1169C10.1916 32.1336 11.9609 32.1758 12.4905 32.1502C13.0205 32.1247 14.4901 31.9884 14.9442 31.9625C15.3983 31.9369 16.8257 31.8339 17.4916 31.8173C18.159 31.8006 19.5257 31.8099 19.9616 31.7839C20.3975 31.7569 22.1246 31.7402 22.7242 31.7402C23.322 31.7402 25.0064 31.8099 25.5786 31.8265C26.1524 31.8428 28.6057 31.9717 29.2461 32.0047C29.8864 32.0399 33.0679 32.1502 33.7687 32.1669C34.4694 32.1836 35.5124 32.2199 36.0679 32.1836C36.6249 32.1502 39.2905 32.0306 40.1031 32.0047C40.9142 31.9791 43.0438 31.9458 43.9083 31.9717C44.7709 31.9958 46.8475 32.2032 47.5498 32.288C48.2505 32.3728 48.9423 32.5528 49.139 32.5602C49.3361 32.5695 49.6524 32.5862 49.7627 32.6891C49.8749 32.7921 49.9775 33.0221 50.1912 33.1506C50.4031 33.2795 50.7027 33.3295 50.8057 33.4669C50.9086 33.6032 50.9179 33.8862 50.9768 34.0058C51.0372 34.1254 51.2853 34.5176 51.319 34.7839C51.3535 35.0488 51.319 35.5102 51.1494 35.801C50.9768 36.0917 50.6938 36.4428 50.3786 36.7665C50.0623 37.0921 49.5842 37.4432 49.1649 37.8021C48.7457 38.1606 48.0357 38.7162 47.6694 39.2202C47.3001 39.7243 47.0716 40.0676 46.9927 40.5702C46.9172 41.0758 46.9598 41.3754 46.9338 41.4602C46.9064 41.5465 46.8309 41.7584 46.7116 41.8873C46.5916 42.0158 46.0712 42.6228 45.882 42.871C45.6942 43.1191 45.3779 43.581 45.3009 43.7006C45.2235 43.8184 45.1553 43.9473 45.1553 43.9473L45.0361 43.7428C45.0361 43.7428 45.2979 43.428 45.3235 43.351C45.422 43.2343 45.3749 42.8695 45.4279 42.255Z" fill="#FFFFFE"/>
<path fill-rule="evenodd" clip-rule="evenodd" d="M3.93359 36.331L3.99248 36.0143C3.99248 36.0143 4.86433 36.0069 5.12952 36.0236C5.39433 36.0403 6.98507 36.0917 7.54063 36.0917C8.09581 36.0917 9.82285 36.1432 10.2406 36.1266C10.6599 36.1084 12.994 36.1599 13.4995 36.1599C14.0036 36.1599 16.448 36.1688 16.9521 36.178C17.4577 36.1854 20.2517 36.2021 20.6877 36.2021C21.1236 36.2021 23.4243 36.2021 23.9628 36.211C24.5003 36.2188 26.8084 36.1943 27.331 36.1943C27.8514 36.1943 29.1865 36.2188 29.4769 36.211C29.7677 36.2021 29.9977 36.178 30.0584 36.1599C30.1173 36.1432 30.3051 36.0658 30.4169 36.1173C30.5291 36.1688 30.5788 36.2973 30.6303 36.364C30.6817 36.4336 30.7847 36.511 30.8436 36.5532C30.9028 36.5954 31.024 36.6562 31.101 36.7591C31.1769 36.8621 31.1769 36.8621 31.2977 36.9543C31.4177 37.0499 31.4432 37.0921 31.4006 37.1436C31.3584 37.1951 31.1769 37.4251 31.101 37.5447C31.024 37.6643 30.998 37.7929 30.9558 37.8262C30.9117 37.8625 30.6562 37.8866 30.6562 37.8866C30.6562 37.8866 30.8103 37.7762 30.7847 37.6732C30.7577 37.5721 30.5788 37.3403 30.2125 37.3147C29.8432 37.2888 28.9291 37.3736 28.5188 37.4162C28.1088 37.4599 25.3888 37.6977 24.9106 37.7414C24.4321 37.784 20.6632 38.0503 20.0217 38.1003C19.3799 38.1517 16.398 38.3317 15.8243 38.3743C15.2525 38.4166 13.0199 38.5284 12.328 38.5695C11.6347 38.6132 10.0366 38.6814 9.42952 38.7073C8.82396 38.7343 7.61767 38.7584 7.39507 38.7417C7.17285 38.7251 6.87322 38.5966 6.71989 38.5284C6.56581 38.4606 5.60026 38.0243 5.32767 37.9036C5.05359 37.784 4.57396 37.5888 4.48915 37.4766C4.40285 37.3647 4.44656 37.1858 4.44656 37.0499C4.44656 36.9121 4.43619 36.7336 4.28322 36.6047C4.12878 36.4762 3.93359 36.331 3.93359 36.331Z" fill="#FFFFFE"/>
<path fill-rule="evenodd" clip-rule="evenodd" d="M6.93359 40.0239V39.7847C6.93359 39.7847 7.33619 39.7847 7.54804 39.7502C7.76285 39.7165 8.60915 39.7165 9.17211 39.691C9.73693 39.6636 11.9421 39.5699 12.6354 39.5291C13.3451 39.485 16.4917 39.3139 17.0806 39.2717C17.671 39.2291 21.8243 38.9461 22.4054 38.895C22.9866 38.8447 26.4166 38.571 26.9554 38.5284C27.4925 38.4847 29.2891 38.2969 29.9295 38.2454C30.5714 38.1939 30.6651 38.1091 30.768 38.1002C30.871 38.0924 30.9469 38.0321 31.0495 38.1517C31.151 38.271 31.3658 38.5117 31.4947 38.5965C31.6232 38.6828 32.0243 38.9387 32.0336 39.0658C32.041 39.1947 31.9214 39.3565 31.861 39.4761C31.8017 39.5973 31.8017 39.8361 31.8017 39.8361L31.3917 39.9121C31.3917 39.9121 31.4251 39.8195 31.4354 39.7591C31.4417 39.6999 31.3736 39.5365 31.204 39.4684C31.0332 39.4002 30.7499 39.3491 30.4684 39.4095C30.1869 39.4684 28.9036 39.691 28.381 39.7758C27.8606 39.8621 24.8347 40.3661 24.0991 40.4854C23.3636 40.605 20.4577 41.0502 19.7643 41.1439C19.0725 41.238 16.3888 41.5887 15.4491 41.6813C14.5077 41.7765 13.3784 41.8873 12.7473 41.9221C12.1147 41.9554 11.4729 42.0158 11.011 41.9643C10.5495 41.9128 9.53248 41.5965 9.0873 41.4861C8.64396 41.3739 7.97656 41.1787 7.86433 41.0669C7.75396 40.955 7.69322 40.8369 7.66026 40.7006C7.62693 40.5628 7.41174 40.2721 7.29989 40.2206C7.19063 40.1691 6.93359 40.0239 6.93359 40.0239Z" fill="#FFFFFE"/>
<path fill-rule="evenodd" clip-rule="evenodd" d="M10.7206 43.0424C10.7206 43.0424 10.8917 43.0684 11.0795 43.0424C11.2684 43.0165 11.4302 42.9302 11.6528 42.9228C11.8739 42.9139 12.5413 42.888 12.9091 42.8713C13.2769 42.8547 14.3532 42.7517 14.7298 42.7169C15.1054 42.6821 16.8928 42.5036 17.4743 42.4265C18.0554 42.3491 21.2428 41.8965 21.7743 41.821C22.3043 41.7424 24.971 41.341 25.6976 41.2124C26.4239 41.0854 28.861 40.6569 29.4847 40.5376C30.108 40.4176 30.8606 40.2984 31.1435 40.2391C31.425 40.1773 31.6143 40.0502 31.7684 40.0939C31.9213 40.1347 32.0832 40.2558 32.2802 40.3484C32.4769 40.4436 32.7765 40.5376 32.9387 40.5965C33.1006 40.6569 33.255 40.7417 33.2713 40.8021C33.288 40.8628 33.2713 41.1021 33.2035 41.2199C33.1354 41.341 33.0932 41.435 33.0672 41.5713C33.0398 41.7091 33.0324 41.821 33.0324 41.821L32.648 41.9573C32.648 41.9573 32.7072 41.7847 32.648 41.6999C32.5872 41.6136 32.3739 41.4606 32.2635 41.4773C32.1517 41.4939 31.9806 41.5028 31.8017 41.5636C31.6232 41.6228 29.3135 42.3158 28.9458 42.4187L26.1924 43.1784C25.8521 43.2739 23.6798 43.8187 23.0654 43.9476C22.4495 44.0761 20.1761 44.5376 19.6113 44.641C19.0469 44.7439 16.9095 45.0176 16.3632 45.051C15.8154 45.0858 15.7213 45.1024 15.2854 45.0765C14.8495 45.051 14.0291 44.948 13.5072 44.8724C12.9861 44.795 12.4221 44.6832 12.225 44.641C12.0284 44.5984 11.8406 44.5636 11.7543 44.3336C11.6695 44.1021 11.6787 43.931 11.5335 43.7691C11.388 43.6069 11.208 43.4436 11.0884 43.3921C10.9687 43.3406 10.7795 43.3421 10.7539 43.2817C10.7113 43.1784 10.7206 43.0424 10.7206 43.0424Z" fill="#FFFFFE"/>
<path fill-rule="evenodd" clip-rule="evenodd" d="M15.3203 46.1619C15.3203 46.1619 16.8762 45.9996 17.2262 45.9482C17.577 45.8967 19.9703 45.5548 20.544 45.4352C21.1159 45.3156 23.5862 44.7782 24.0311 44.6752C24.4762 44.5726 27.1781 43.87 27.7151 43.7248C28.254 43.5793 30.0659 43.0682 30.5533 42.9137C31.0407 42.7608 32.4862 42.3248 32.6481 42.2552C32.8099 42.1871 32.9718 42.0674 33.1355 42.0841C33.2988 42.1008 33.7681 42.2459 33.9392 42.2974C34.1103 42.3489 34.5537 42.4263 34.6325 42.5034C34.7081 42.5789 34.7414 42.6485 34.7248 42.7682C34.7081 42.8893 34.7155 43.5204 34.7248 43.5885C34.7337 43.6582 34.8974 43.7945 34.8974 43.7945L34.487 43.9563C34.4007 43.9911 34.2129 44.0593 34.2129 44.0593C34.2129 44.0593 34.2555 43.8793 34.2296 43.8278C34.204 43.7778 33.9711 43.6385 33.9044 43.6234C33.827 43.6052 33.7588 43.6234 33.5788 43.6826C33.4003 43.743 32.9388 43.9489 32.7085 44.0519C32.477 44.153 31.1103 44.6919 30.6999 44.8541C30.2885 45.0159 28.6311 45.6485 28.0996 45.8378C27.5699 46.0256 25.1603 46.8548 24.7151 46.9911C24.2703 47.1289 22.6885 47.5722 22.3133 47.6663C21.9362 47.76 21.7562 47.8385 21.4492 47.8552C21.1418 47.8719 19.9444 47.7689 19.4481 47.7011C18.9529 47.633 17.5592 47.4271 17.3714 47.3667C17.1836 47.3074 17.064 47.2304 16.9522 47.1034C16.8418 46.9745 16.7477 46.8804 16.5599 46.7778C16.3711 46.6763 16.1499 46.5645 15.9955 46.5037C15.8425 46.4448 15.7729 46.4189 15.6703 46.3767C15.5688 46.333 15.4566 46.3237 15.3962 46.2811C15.337 46.2404 15.3203 46.1619 15.3203 46.1619Z" fill="#FFFFFE"/>
<path fill-rule="evenodd" clip-rule="evenodd" d="M21.7578 48.8542C21.7578 48.8542 22.2604 48.7346 22.4071 48.6665C22.5511 48.5983 23.3637 48.3516 23.6211 48.282C23.8786 48.2139 24.7926 47.9657 25.1756 47.8372C25.5615 47.7083 27.3552 47.0939 27.7078 46.9742C28.0574 46.8546 30.1945 46.0509 30.6137 45.8891C31.0334 45.7272 33.4097 44.7524 33.75 44.6146C34.0937 44.4783 34.4341 44.3331 34.5537 44.2542C34.6748 44.1787 35.0578 43.9909 35.2393 43.9472C35.4178 43.9046 35.7767 43.8457 35.9386 43.855C36.1023 43.8624 36.2219 43.8457 36.2897 43.9213C36.3578 44.0002 36.3852 44.1016 36.3745 44.2302C36.3656 44.3572 36.4093 44.6828 36.5548 44.7931C36.7 44.9053 36.9226 45.0079 37.1708 45.0672C37.4189 45.1261 37.6567 45.1624 37.743 45.1702C37.8278 45.179 37.8882 45.1702 37.8882 45.1702C37.8882 45.1702 37.4023 45.4594 37.2811 45.5213L36.6486 45.8361C36.6486 45.8361 36.606 45.7087 36.5471 45.6831C36.4867 45.6576 36.2567 45.6576 36.0674 45.6742C35.8797 45.6909 35.6919 45.7605 35.5208 45.862C35.3482 45.9646 33.7078 46.8365 33.3837 47.0076C33.0582 47.1787 30.5441 48.4879 30.2037 48.6424C29.8615 48.795 28.2467 49.5898 27.98 49.7094C27.7152 49.8305 27.5611 49.9335 27.3126 49.9576C27.0645 49.9831 26.5015 49.9924 25.9974 49.9998C25.4934 50.0091 24.5019 49.9831 24.1934 49.9668C23.886 49.9502 23.4408 49.9394 23.2019 49.8472C22.9626 49.7516 22.9278 49.6231 22.7826 49.4535C22.6374 49.2824 22.3556 49.1205 22.2271 49.0783C22.0982 49.0342 21.9 49.0205 21.8167 49.0416C21.7819 49.0509 21.7578 48.8542 21.7578 48.8542Z" fill="#FFFFFE"/>
<path fill-rule="evenodd" clip-rule="evenodd" d="M27.6045 50.9241C27.6045 50.9241 29.5615 49.94 29.8597 49.813C30.1608 49.6841 33.0838 48.1889 33.4589 47.983C33.836 47.7771 35.973 46.6071 36.4349 46.3511C36.8963 46.0937 37.5367 45.7519 37.6397 45.6837C37.7426 45.6156 37.8197 45.5126 37.9482 45.4689C38.0756 45.4263 38.1619 45.4097 38.1619 45.4097C38.1619 45.4097 38.3419 45.6504 38.4434 45.7778C38.5463 45.9049 38.7778 46.1363 39.0338 46.1711C39.2897 46.206 39.4182 46.2137 39.58 46.1952C39.7419 46.1789 40.0249 46.1197 40.0249 46.1197C40.0249 46.1197 39.3167 46.8041 39.1882 46.9052C39.0593 47.0082 37.5034 48.2826 37.1963 48.5567C36.8889 48.8304 35.7597 49.71 35.5023 49.9156C35.2467 50.12 34.4263 50.7286 34.2478 50.8208C34.066 50.9163 33.6134 51.086 33.3304 51.1645C33.0489 51.2404 31.7489 51.5141 31.2797 51.6082C30.81 51.7019 29.8008 51.8745 29.6052 51.8819C29.4071 51.8912 29.1256 51.8912 28.9545 51.7093C28.7838 51.5308 28.6897 51.266 28.4671 51.1552C28.2449 51.0434 28.0919 50.9723 27.9375 50.9919C27.6289 51.0341 27.6045 50.9241 27.6045 50.9241Z" fill="#FFFFFE"/>
<path fill-rule="evenodd" clip-rule="evenodd" d="M33.2881 52.0694C33.2881 52.0694 34.3492 51.2913 34.5811 51.102C34.8096 50.9146 35.7677 50.1639 36.0251 49.9579C36.2822 49.752 37.4081 48.8379 37.7518 48.5565C38.094 48.2731 39.1188 47.4016 39.3851 47.1624C39.6499 46.9231 40.1781 46.4102 40.1781 46.4102C40.1781 46.4102 40.2144 46.6161 40.307 46.6916C40.4022 46.7705 40.5311 46.9324 40.7518 47.0246C40.9744 47.1202 41.2814 47.1365 41.5055 47.1276C41.7266 47.1202 41.9399 47.0942 42.0262 47.0942C42.1125 47.0942 42.2488 47.1365 42.2577 47.282C42.2655 47.4272 42.2748 47.5302 42.2748 47.5983C42.2748 47.6679 42.3077 47.7268 42.3077 47.7268L40.7351 49.4705C40.4281 49.8127 39.5377 50.7694 39.2562 51.0598C38.9733 51.3505 38.2559 52.1283 38.1714 52.1979C38.0848 52.2661 37.8336 52.2116 37.6822 52.1209C37.487 52.0013 37.307 52.0953 37.0677 52.1557C36.827 52.2146 36.4003 52.3435 36.1185 52.4116C35.8736 52.4705 35.1862 52.625 35.0077 52.625C34.8292 52.625 34.6307 52.6083 34.5203 52.4887C34.4099 52.369 34.1618 52.1027 34.0329 52.0435C33.9044 51.9831 33.7499 51.9409 33.6833 51.9831C33.6136 52.0272 33.3399 52.189 33.2881 52.0694Z" fill="#FFFFFE"/>
<path fill-rule="evenodd" clip-rule="evenodd" d="M38.4619 52.4117C38.4619 52.4117 39.4867 51.3261 39.7182 51.0872C39.9482 50.8465 41.1893 49.5054 41.4541 49.2146C41.7178 48.9243 42.1715 48.3839 42.2823 48.2476C42.3941 48.1113 42.479 48.0176 42.5304 48.0176C42.5819 48.0176 42.8723 48.0009 43.1027 47.9568C43.3341 47.9146 43.6853 47.8387 43.7686 47.8631C43.8549 47.8891 43.8549 47.9568 43.8641 48.0265C43.873 48.0931 43.8808 48.838 43.8897 49.0772C43.8971 49.318 43.8971 49.8383 43.8471 50.0276C43.796 50.2154 43.2312 51.3172 43.1027 51.6168C42.9753 51.9165 42.606 52.5828 42.556 52.7113C42.5049 52.8383 42.4715 52.8731 42.4275 52.9154C42.3849 52.9594 42.2882 52.8065 42.1534 52.6431C41.966 52.4117 41.7704 52.4446 41.5723 52.498C41.3771 52.5476 40.2738 52.8383 40.0771 52.8805C39.8801 52.9246 39.5378 53.0183 39.3578 52.9835C39.1793 52.9502 39.093 52.8305 39.0082 52.6854C38.9219 52.5402 38.8145 52.4446 38.6919 52.4446C38.5556 52.4446 38.4619 52.4117 38.4619 52.4117Z" fill="#FFFFFE"/>
<path fill-rule="evenodd" clip-rule="evenodd" d="M43.4629 51.6426C43.4629 51.6426 43.7184 51.0359 43.7773 50.924C43.8396 50.8118 43.9229 50.6333 43.9229 50.6333C43.9229 50.6333 43.9925 50.9496 44.0514 51.0948C44.1121 51.2403 44.2603 51.3974 44.3088 51.564C44.3451 51.6896 44.5992 52.3437 44.6418 52.4448C44.684 52.5478 44.7614 52.71 44.7355 52.8052C44.7114 52.8992 44.7188 52.9763 44.7536 53.0611C44.787 53.1459 44.8188 53.2259 44.7614 53.2485C44.6751 53.2837 44.4966 53.4122 44.4373 53.4363C44.377 53.4622 44.2314 53.4548 44.147 53.3274C44.094 53.2485 43.8807 53.2318 43.711 53.0959C43.5399 52.9581 43.5566 52.8733 43.5655 52.7355C43.5729 52.6007 43.6503 52.0863 43.6081 51.9755C43.5655 51.8652 43.4629 51.6426 43.4629 51.6426Z" fill="#FFFFFE"/>
<path fill-rule="evenodd" clip-rule="evenodd" d="M38.2646 53.7285C38.2646 53.7285 38.5813 54.1296 38.7872 54.1218C38.9913 54.113 39.0595 54.0615 39.1443 54.0356C39.2306 54.01 39.4184 54.0026 39.4954 54.0433C39.5728 54.0859 39.6846 54.2233 39.6758 54.3522C39.6665 54.4807 39.7454 54.7518 39.8376 54.9589C39.9495 55.207 40.3854 56.0955 40.6413 56.5152C40.8969 56.9344 41.6402 57.9937 41.9565 58.3781C42.2746 58.7641 43.3261 59.91 43.5987 60.1478C43.8713 60.3881 45.2576 61.5418 45.7543 61.8744C46.2491 62.2074 47.4284 62.9704 48.1472 63.3278C48.8646 63.6881 49.7546 64.1055 49.9846 64.1922C50.2146 64.2785 50.3691 64.3022 50.4113 64.3704C50.4554 64.4404 50.5309 64.5085 50.5309 64.5085L50.2676 64.9437L50.0361 65.3122L49.8409 65.2181C49.8409 65.2181 49.9846 65.0974 49.9332 64.9959C49.8817 64.8926 49.8213 64.79 49.6591 64.7037C49.4972 64.6192 48.7965 64.3204 48.4876 64.1748C48.1806 64.0304 46.8302 63.2944 46.3521 62.987C45.8721 62.6781 44.6932 61.8674 44.1361 61.413C43.5821 60.9604 42.3758 59.7815 41.9746 59.3363C41.5735 58.8915 40.735 57.7896 40.478 57.3944C40.2221 57.0026 39.4954 55.6856 39.3409 55.3344C39.1869 54.9848 39.1021 54.753 38.9565 54.617C38.8113 54.4807 38.7691 54.4552 38.7084 54.4459C38.6495 54.4385 38.4965 54.42 38.4965 54.42C38.4965 54.42 38.4524 54.3174 38.3754 54.0859C38.315 53.9056 38.2646 53.7285 38.2646 53.7285Z" fill="#FFFFFE"/>
<path fill-rule="evenodd" clip-rule="evenodd" d="M39.7515 53.9839C39.7515 53.9839 40.0419 53.9672 40.2738 53.8731C40.5038 53.7794 41.1378 53.5994 41.3938 53.5313C41.6497 53.4617 41.9493 53.3343 42.0778 53.2998C42.2067 53.2665 42.3004 53.2239 42.376 53.2406C42.4545 53.2572 42.4971 53.2998 42.5804 53.4191C42.6667 53.5402 42.7712 53.7931 42.8801 53.8809C43.009 53.9839 43.1812 54.138 43.419 54.1124C43.6597 54.0868 43.8986 54.0609 44.0956 53.9761C44.2908 53.8898 44.6601 53.6509 44.7449 53.6068C44.8297 53.5643 44.9508 53.4706 44.993 53.5146C45.0356 53.5568 45.096 53.6343 45.1549 53.6509C45.2156 53.6676 45.3004 53.7446 45.3334 53.805C45.3686 53.8643 45.8982 54.6513 46.1886 55.0009C46.4793 55.3506 46.8986 55.8139 47.1893 56.095C47.4797 56.3783 48.326 57.1124 48.659 57.3517C48.9934 57.592 49.9682 58.2413 50.4041 58.4713C50.8401 58.7031 51.3697 58.9846 51.7982 59.165C52.2249 59.345 52.6775 59.5235 52.7986 59.5824C52.9167 59.6431 52.9604 59.702 53.0452 59.7717C53.1315 59.8398 53.1815 59.9261 53.1482 60.0109C53.1134 60.0957 52.6608 60.8057 52.4641 61.1657C52.2675 61.5246 51.9086 62.0969 51.7634 62.3535C51.6182 62.6098 51.2338 63.2346 51.1215 63.4394C51.0097 63.645 50.719 64.1143 50.7023 64.1657C50.6856 64.2157 50.6101 64.2083 50.5827 64.1657C50.5571 64.1231 50.6856 63.9857 50.6856 63.8165C50.6856 63.645 50.5827 63.4039 50.489 63.3106C50.3949 63.2165 50.1134 63.0806 49.9593 63.0106C49.8049 62.9424 49.0541 62.5835 48.6771 62.3868C48.3019 62.1902 47.5404 61.7546 47.0441 61.4291C46.549 61.105 45.8815 60.6602 45.4534 60.3106C45.0264 59.9594 44.4193 59.4387 44.0441 59.0709C43.6671 58.7031 43.0434 58.0113 42.6501 57.4968C42.2564 56.9854 41.7523 56.292 41.4786 55.8046C41.206 55.3172 40.923 54.7102 40.8308 54.6072C40.7352 54.5057 40.599 54.3439 40.4023 54.2835C40.2056 54.2246 40.0934 54.1806 40.0086 54.1717C39.9227 54.1639 39.7697 54.1639 39.7515 54.0957C39.7349 54.0261 39.7515 53.9839 39.7515 53.9839Z" fill="#FFFFFE"/>
<path fill-rule="evenodd" clip-rule="evenodd" d="M31.0666 35.2108C31.0666 35.2108 32.6651 35.2034 33.1359 35.2108C33.6051 35.2201 34.9659 35.2201 35.1111 35.2201C35.2562 35.2201 35.444 35.279 35.5211 35.2882L35.6666 35.3064C35.6666 35.3064 35.7348 35.4593 35.6833 35.5104C35.6318 35.5604 35.5725 35.733 35.5303 35.8345C35.4866 35.9375 35.5211 36.0493 35.4607 36.066C35.4014 36.0827 35.1277 36.1175 35.1277 36.1175C35.1277 36.1175 35.1703 35.989 35.0944 35.9375C35.0155 35.8875 34.8203 35.8178 34.6585 35.8271C34.4937 35.8345 33.6822 35.9134 33.4266 35.9375C33.1692 35.963 32.4425 36.0586 32.2974 36.0827C32.1522 36.1086 31.99 36.0827 31.8796 36.0404C31.7674 35.9964 31.374 35.8345 31.2637 35.7497C31.1529 35.6634 31.1 35.6304 31.0592 35.6212L30.8955 35.5878L30.9729 35.3819C30.9985 35.3138 31.0666 35.2108 31.0666 35.2108Z" fill="#FFFFFE"/>
<path fill-rule="evenodd" clip-rule="evenodd" d="M31.5371 37.4767C31.5371 37.4767 31.6901 37.2363 31.7416 37.203C31.793 37.1693 32.1775 37.0486 32.3319 37.0074C32.4864 36.9637 33.2127 36.7926 33.5382 36.7171C33.8619 36.6382 34.4856 36.5278 34.7764 36.4504C35.0671 36.3734 35.3408 36.2793 35.4271 36.2793C35.5119 36.2793 35.6571 36.3219 35.7512 36.3915C35.8464 36.4597 36.0342 36.5956 36.1279 36.673C36.2219 36.75 36.3156 36.8789 36.2897 36.9456C36.2656 37.0152 36.2219 37.0663 36.1705 37.1349C36.1205 37.203 36.1371 37.2363 36.1205 37.3149C36.1008 37.3904 36.1008 37.5193 36.1008 37.5193C36.1008 37.5193 35.8464 37.5963 35.8023 37.6056C35.7601 37.613 35.6919 37.6311 35.6919 37.6311C35.6919 37.6311 35.7601 37.4511 35.7086 37.4178C35.6571 37.383 35.4697 37.2452 35.2819 37.2286C35.0927 37.2119 34.5553 37.3737 34.3738 37.4345C34.1953 37.4934 33.5201 37.6734 33.2642 37.7508C33.0071 37.8263 32.7767 37.9382 32.5708 37.9219C32.3667 37.9037 32.1864 37.8189 32.0064 37.7341C31.8279 37.6478 31.7853 37.613 31.7249 37.5797C31.666 37.5449 31.5371 37.4767 31.5371 37.4767Z" fill="#FFFFFE"/>
<path fill-rule="evenodd" clip-rule="evenodd" d="M32.2285 39.2887C32.2285 39.2887 32.2452 39.1431 32.3237 39.0842C32.3993 39.0238 32.6056 38.9738 32.707 38.9209C32.8096 38.8694 33.1259 38.7664 33.4589 38.6483C33.7937 38.5287 34.417 38.3398 34.6822 38.2639C34.9485 38.1853 35.5204 38.0068 35.6659 37.9476C35.8111 37.8868 35.9911 37.7764 36.1367 37.7857C36.2818 37.7931 36.5544 37.8524 36.7089 37.9127C36.863 37.9735 37.0252 38.0398 37.0507 38.1427C37.0752 38.2457 37.0159 38.4001 36.957 38.485C36.8963 38.5713 36.8796 38.6483 36.863 38.7164C36.8448 38.7846 36.8448 38.9116 36.8448 38.9116C36.8448 38.9116 36.7511 38.9905 36.6393 39.0161L36.4604 39.0572C36.4604 39.0572 36.477 38.9376 36.4015 38.8527C36.3244 38.7664 36.1107 38.6831 35.9656 38.7242C35.8204 38.7664 35.2633 38.9905 35.05 39.0842C34.8363 39.1783 34.2293 39.4594 34.0237 39.5461C33.8193 39.6305 33.6741 39.7079 33.4589 39.6746C33.2456 39.6398 33.067 39.6216 32.9052 39.5461C32.743 39.4687 32.5281 39.3568 32.4526 39.3309C32.3737 39.3068 32.2285 39.2887 32.2285 39.2887Z" fill="#FFFFFE"/>
<path fill-rule="evenodd" clip-rule="evenodd" d="M33.5626 40.7674L34.2892 40.4174C34.5374 40.2981 35.4774 39.8711 35.7681 39.7333C36.0585 39.5974 36.5292 39.3659 36.6322 39.3233C36.7352 39.2807 36.8455 39.2037 36.9652 39.1948C37.0848 39.1855 37.3589 39.2459 37.5115 39.2807C37.6659 39.3141 37.8811 39.34 37.9311 39.4337C37.9822 39.5278 38.0096 39.7259 37.9822 39.7848C37.9566 39.8455 37.8977 40.0407 37.9066 40.1178C37.9144 40.1952 37.94 40.3829 37.94 40.3829L37.7189 40.5022C37.607 40.5629 37.4618 40.6311 37.4618 40.6311C37.4618 40.6311 37.4285 40.5022 37.3329 40.4174C37.2392 40.3311 37.0592 40.2889 36.9229 40.3311C36.8303 40.36 36.2733 40.6826 36.0678 40.8096C35.8633 40.9385 35.3411 41.2637 35.2563 41.3152C35.1703 41.3667 35.0944 41.4937 34.837 41.4604C34.58 41.427 34.46 41.4 34.3315 41.3407C34.2029 41.2818 33.9396 41.0926 33.87 41.0411C33.8033 40.9911 33.5459 40.9218 33.5459 40.8537C33.5459 40.7852 33.5626 40.7674 33.5626 40.7674Z" fill="#FFFFFE"/>
<path fill-rule="evenodd" clip-rule="evenodd" d="M34.9053 42.5457C34.9053 42.5457 35.6408 42.0597 35.9571 41.8708C36.2723 41.6831 37.0427 41.2382 37.3423 41.076C37.6419 40.9142 37.9327 40.6994 38.0853 40.6734C38.2397 40.6479 38.6227 40.6568 38.8208 40.6568C39.0164 40.6568 39.1538 40.6568 39.1708 40.7597C39.1875 40.8612 39.1538 40.9475 39.1449 41.0338C39.1371 41.1186 39.1449 41.3575 39.1449 41.3575L37.666 42.5201C37.4271 42.7079 36.8623 43.2134 36.829 43.2223C36.7942 43.2301 36.6064 43.0771 36.3749 42.9908C36.1449 42.906 36.0179 42.8879 35.9223 42.8712C35.8286 42.8531 35.6834 42.7864 35.5379 42.7168C35.3927 42.6486 35.3505 42.6231 35.2475 42.6049C35.146 42.5882 34.9312 42.6653 34.9312 42.6653L34.9053 42.5457Z" fill="#FFFFFE"/>
<path fill-rule="evenodd" clip-rule="evenodd" d="M36.6904 43.8279C36.6904 43.8279 37.0586 43.4949 37.3156 43.2723C37.5715 43.0516 38.3571 42.4171 38.5645 42.246C38.7689 42.0768 39.2908 41.6738 39.3667 41.6149C39.4438 41.5545 39.5286 41.5453 39.6238 41.5453C39.7178 41.5453 39.9478 41.4771 40.0508 41.4771C40.1538 41.4771 40.3323 41.4697 40.3504 41.6056C40.3671 41.7434 40.4367 42.0086 40.4278 42.1101C40.4186 42.213 40.4278 42.3323 40.4612 42.3912C40.4956 42.4519 40.5289 42.4868 40.5289 42.4868C40.5289 42.4868 40.4445 42.599 40.2989 42.7349C40.1538 42.8697 39.7086 43.289 39.5119 43.4782C39.3152 43.666 38.9141 44.0519 38.7689 44.2045C38.6234 44.359 38.3934 44.5727 38.3934 44.5727C38.3934 44.5727 38.333 44.3501 38.2041 44.2397C38.0771 44.1275 37.7593 44.0686 37.5715 44.0593C37.3838 44.0519 37.1449 43.8701 37.0493 43.846C36.9571 43.8201 36.8449 43.8793 36.8449 43.8793C36.8449 43.8793 36.7256 43.9142 36.6904 43.8279Z" fill="#FFFFFE"/>
<path fill-rule="evenodd" clip-rule="evenodd" d="M38.5557 44.922L39.5638 43.9142C39.7608 43.7176 40.419 43.1027 40.5734 42.9468C40.726 42.7942 40.8549 42.6398 41.026 42.5639C41.1968 42.4853 41.4031 42.3839 41.4953 42.4187C41.5905 42.452 41.6586 42.5805 41.7027 42.7168C41.7449 42.8546 41.872 43.0424 42.1112 43.1194C42.3505 43.1953 42.4957 43.2209 42.6079 43.2135C42.7197 43.2042 42.7786 43.1953 42.7786 43.1953C42.7786 43.1953 42.5383 43.4435 42.4109 43.572C42.2838 43.7009 41.9068 44.0672 41.6827 44.2731C41.462 44.4787 40.8897 45.0509 40.726 45.2053C40.5642 45.3583 40.3327 45.555 40.3327 45.555C40.3327 45.555 40.3312 45.3946 40.2131 45.2824C40.0512 45.1264 39.8468 45.1539 39.6594 45.1627C39.4701 45.1705 39.3505 45.119 39.2397 45.025C39.1279 44.9313 39.0416 44.8361 38.9827 44.8283C38.922 44.8194 38.7875 44.889 38.7508 44.9057C38.7179 44.922 38.5557 44.922 38.5557 44.922Z" fill="#FFFFFE"/>
<path fill-rule="evenodd" clip-rule="evenodd" d="M40.5732 45.8291C40.5732 45.8291 41.1288 45.3069 41.4029 45.0343C41.6766 44.7602 42.2047 44.2473 42.4366 44.0173C42.6666 43.7858 43.0858 43.3921 43.0858 43.3921C43.0858 43.3921 43.1721 43.5206 43.3673 43.5373C43.5655 43.5539 43.7532 43.5902 43.8984 43.598C44.044 43.6069 44.2921 43.6069 44.3677 43.5284C44.4447 43.4525 44.5477 43.4269 44.5477 43.4269C44.5477 43.4269 44.4269 43.598 44.2829 43.7858C44.1362 43.9732 43.7273 44.5469 43.4958 44.898C43.2658 45.2476 42.7436 46.0076 42.6573 46.1528C42.5725 46.298 42.3758 46.6069 42.3169 46.6917C42.2577 46.778 42.1792 46.8795 42.1792 46.8795C42.1792 46.8795 42.1973 46.7173 42.0595 46.4799C41.9232 46.2391 41.8462 46.2317 41.7266 46.1951C41.6069 46.1621 41.5647 46.2136 41.3858 46.1195C41.2044 46.0258 41.1121 45.8458 40.9999 45.8199C40.8881 45.7958 40.894 45.7776 40.8032 45.8199C40.6595 45.888 40.5732 45.8291 40.5732 45.8291Z" fill="#FFFFFE"/>
<path fill-rule="evenodd" clip-rule="evenodd" d="M44.6936 43.8364C44.6936 43.8364 44.7618 43.9486 44.8299 44.0335C44.8981 44.1183 44.9932 44.2135 44.9751 44.2816C44.9584 44.3498 44.6514 44.9657 44.5818 45.1275C44.5147 45.2898 44.291 46.0164 44.241 46.2312C44.1895 46.4446 44.1125 46.7609 44.0429 46.9227C43.9743 47.0846 43.9081 47.1709 43.8988 47.239L43.8718 47.4449C43.8718 47.4449 43.7443 47.5298 43.684 47.5479L43.4962 47.5979V47.4357C43.4962 47.3664 43.3932 47.239 43.3266 47.1198C43.2569 47.0001 43.198 46.8638 43.2736 46.6323C43.351 46.402 43.4447 46.1283 43.531 45.939C43.6158 45.7512 43.6766 45.5468 43.8125 45.2305C43.9503 44.9142 44.061 44.6661 44.2229 44.4268C44.3862 44.1879 44.4621 44.059 44.5314 43.9653C44.5995 43.8698 44.6936 43.8364 44.6936 43.8364Z" fill="#FFFFFE"/>
<path fill-rule="evenodd" clip-rule="evenodd" d="M36.0336 35.314C36.0336 35.314 36.6995 35.2806 37.1869 35.2717C37.6743 35.2625 38.2902 35.2717 38.6143 35.3228C38.9395 35.3732 39.4784 35.4002 39.6828 35.3914C39.8873 35.3821 40.1958 35.3565 40.6925 35.3732C41.1873 35.3914 42.0773 35.4169 42.6676 35.5017C43.2562 35.588 43.7954 35.7077 44.2736 35.8695C44.7517 36.0317 45.6328 36.4084 45.9158 36.7414C46.1973 37.0743 46.4017 37.3484 46.3684 37.7765C46.335 38.2036 46.1639 38.6562 46.0262 38.9225C45.8899 39.1873 45.5554 39.7595 45.4965 39.8606C45.4376 39.9654 44.9228 40.4436 44.7184 40.6736C44.5128 40.9036 43.8465 41.6228 43.5817 41.9406C43.3169 42.2554 43.1124 42.5095 43.0247 42.5977C42.9054 42.7169 42.8206 42.8458 42.8206 42.8458H42.7343C42.7343 42.8458 42.8387 42.7095 42.8128 42.564C42.7854 42.4188 42.6676 42.1947 42.5465 42.128C42.4269 42.0584 42.3936 42.0421 42.3073 42.0662C42.2225 42.0936 42.1528 42.128 42.0939 42.1447C42.0336 42.1614 41.9832 42.1706 41.9832 42.1706C41.9832 42.1706 42.2817 41.8377 42.4195 41.6925C42.5554 41.5454 42.9325 41.2032 43.0595 41.0762C43.1884 40.9477 43.308 40.8706 43.3591 40.8706C43.4106 40.8706 43.6317 40.9477 43.7769 40.8869C43.9224 40.828 44.1887 40.554 44.2054 40.3665C44.2221 40.1788 44.128 39.9895 44.001 39.8969C43.8725 39.8017 43.6847 39.7247 43.565 39.7336C43.4439 39.7428 43.2821 39.7684 43.1625 39.8365C43.0825 39.8821 42.9917 39.8969 42.9917 39.8969C42.9917 39.8969 43.0006 39.8017 43.0173 39.6565C43.0339 39.5114 42.958 39.3662 42.8795 39.2462C42.8039 39.1269 42.6495 39.0328 42.4617 39.0073C42.2743 38.9814 42.1876 39.0328 42.1199 38.9814C42.0502 38.9299 42.1032 38.8195 42.0424 38.6817C41.9832 38.5454 41.888 38.3488 41.7095 38.2791C41.5295 38.2125 41.3765 38.1702 41.2902 38.1702C41.2054 38.1702 41.2054 38.1188 41.2054 38.008C41.2054 37.8628 41.1706 37.5617 41.0858 37.4862C40.9995 37.4073 40.8028 37.2621 40.6832 37.2377C40.5636 37.2121 40.4787 37.1954 40.4787 37.1351C40.4787 37.0743 40.5547 36.9291 40.5547 36.7928C40.5547 36.6565 40.5287 36.4506 40.3669 36.3402C40.205 36.2284 40.0247 36.1691 39.9569 36.0573C39.8873 35.9469 39.7691 35.8273 39.7358 35.818C39.6995 35.8088 39.5539 35.8088 39.4528 35.818C39.3499 35.8273 39.1017 35.8784 38.9228 35.9043C38.7428 35.9284 38.6491 35.9725 38.5536 35.9469C38.4613 35.921 38.2632 35.844 38.1269 35.844C37.9891 35.844 37.6576 35.8621 37.435 35.8862C37.2128 35.9117 36.9824 35.9377 36.8024 35.9284C36.6224 35.921 36.4936 35.8621 36.3484 35.8014C36.2028 35.7406 36.1606 35.7165 36.0758 35.6651C35.991 35.614 35.9473 35.5714 35.9473 35.5714C35.9473 35.5714 35.9562 35.4925 35.9728 35.4428C35.991 35.3914 36.0336 35.314 36.0336 35.314Z" fill="#FFFFFE"/>
<path fill-rule="evenodd" clip-rule="evenodd" d="M36.4702 36.8863C36.4702 36.8863 36.9517 36.6837 37.2832 36.5793C37.6324 36.4671 38.2561 36.3141 38.5376 36.2552C38.8206 36.193 39.0265 36.11 39.1358 36.1434C39.2476 36.1767 39.3839 36.1767 39.4624 36.1689L39.6154 36.1523C39.6154 36.1523 39.6835 36.2356 39.6409 36.263C39.5972 36.2886 39.5913 36.3219 39.4958 36.4249C39.4021 36.5278 39.3246 36.6382 39.2143 36.6819C39.1024 36.7245 38.845 36.7834 38.5543 36.8608C38.2639 36.9378 37.802 37.083 37.6402 37.1271C37.478 37.1693 37.4358 37.2119 37.1802 37.1693C36.9228 37.1271 36.8454 37.1015 36.735 37.0741C36.6232 37.0486 36.6154 37.0741 36.555 37.1015C36.4943 37.1271 36.4609 37.1015 36.4609 37.1015V36.9819C36.4609 36.9378 36.4702 36.8863 36.4702 36.8863Z" fill="#FFFFFE"/>
<path fill-rule="evenodd" clip-rule="evenodd" d="M37.3072 38.1092C37.3072 38.1092 37.7687 37.861 38.1531 37.6992C38.539 37.5355 39.3172 37.254 39.479 37.2117C39.6409 37.1677 39.8198 37.118 39.915 37.1677C40.0075 37.2206 40.0861 37.2799 40.0605 37.3569C40.0346 37.4329 39.9061 37.6217 39.812 37.6732C39.7183 37.7232 39.172 38.0232 38.9646 38.1092C38.7601 38.1955 38.3075 38.4332 38.1716 38.4421C38.0335 38.4514 37.8883 38.4166 37.752 38.3743C37.6146 38.3318 37.5642 38.3062 37.4946 38.2969C37.4268 38.2877 37.2812 38.2969 37.2812 38.2969C37.2812 38.2969 37.2994 38.2547 37.2994 38.2121C37.2994 38.1684 37.3072 38.1092 37.3072 38.1092Z" fill="#FFFFFE"/>
<path fill-rule="evenodd" clip-rule="evenodd" d="M38.1714 39.4003C38.1714 39.4003 38.6843 39.1006 38.8554 38.9977C39.0247 38.8962 39.5817 38.6314 39.8195 38.5029C40.0603 38.3743 40.3158 38.2621 40.4536 38.271C40.5899 38.2803 40.7095 38.3406 40.7277 38.4077C40.7443 38.4773 40.7277 38.6225 40.6669 38.7329C40.6066 38.8447 40.5688 38.9358 40.3766 39.1173C40.1643 39.3188 40.0084 39.4169 39.8799 39.5292C39.7529 39.6395 39.5562 39.8014 39.4532 39.8195C39.3503 39.8362 39.1884 39.741 39.1021 39.7243C39.0173 39.7077 38.7599 39.6047 38.701 39.5714C38.6403 39.5366 38.5373 39.4943 38.4617 39.5032C38.3828 39.511 38.1621 39.5625 38.1621 39.5625L38.1714 39.4003Z" fill="#FFFFFE"/>
<path fill-rule="evenodd" clip-rule="evenodd" d="M39.5303 40.5112C39.5303 40.5112 39.8377 40.2297 40.0525 40.0586C40.2643 39.8875 40.6581 39.6227 40.8458 39.4849C41.0332 39.349 41.1788 39.2457 41.2392 39.2368C41.2999 39.229 41.3603 39.2534 41.4029 39.2972C41.4451 39.3397 41.5647 39.3397 41.5977 39.4423C41.6343 39.5438 41.5977 39.6301 41.6343 39.6894C41.6673 39.7512 41.7521 39.7331 41.7688 39.7846C41.7869 39.8346 41.7688 39.939 41.7688 39.939C41.7688 39.939 41.3421 40.272 41.1877 40.4172C41.0332 40.5627 40.7866 40.8016 40.7258 40.8349C40.6669 40.8712 40.4447 40.7427 40.3069 40.6823C40.1706 40.6231 39.854 40.5279 39.7347 40.5205C39.6151 40.5112 39.5303 40.5112 39.5303 40.5112Z" fill="#FFFFFE"/>
<path fill-rule="evenodd" clip-rule="evenodd" d="M40.7354 41.3155C40.7354 41.3155 41.1016 40.9733 41.2831 40.8114C41.462 40.6481 41.6498 40.477 41.7857 40.3485C41.9235 40.2211 42.2142 40.0151 42.2142 40.0151C42.2142 40.0151 42.3428 40.0244 42.3261 40.1014C42.3079 40.1788 42.4016 40.1955 42.4624 40.1955C42.5216 40.1955 42.6668 40.1607 42.7105 40.1788C42.7531 40.1955 42.8213 40.2211 42.8213 40.3151C42.8213 40.4088 42.8287 40.4937 42.865 40.5025C42.8983 40.5118 42.9831 40.4937 42.9924 40.53C43.0013 40.5633 43.0102 40.6222 43.0102 40.6222C43.0102 40.6222 42.5305 41.1007 42.3261 41.2896C42.1205 41.4774 41.8039 41.8103 41.7616 41.8633C41.7194 41.9133 41.6935 41.9481 41.6935 41.9481C41.6935 41.9481 41.6239 41.7603 41.4528 41.6059C41.2831 41.4518 41.2135 41.4018 41.0516 41.3577C40.8898 41.3155 40.7354 41.3155 40.7354 41.3155Z" fill="#FFFFFE"/>
<path fill-rule="evenodd" clip-rule="evenodd" d="M43.5383 42.513C43.5383 42.513 43.8213 42.1615 44.0695 41.8967L44.6676 41.2552C44.7702 41.1445 44.8383 41.0415 44.8383 41.0415C44.8383 41.0415 44.6765 41.4274 44.6417 41.5985C44.6069 41.7682 44.5646 42.0937 44.5646 42.2389C44.5646 42.3841 44.5054 42.5459 44.4706 42.7248C44.4358 42.9063 44.4358 43.0685 44.4358 43.0685C44.4358 43.0685 44.3161 43.1363 44.2313 43.1785C44.145 43.2226 44.0424 43.2893 44.0424 43.2893C44.0424 43.2893 44.0258 43.0348 43.9243 42.8974C43.8213 42.7611 43.7791 42.7248 43.6928 42.6748C43.6065 42.6234 43.4717 42.6067 43.4717 42.6067L43.5383 42.513Z" fill="#FFFFFE"/>
<path fill-rule="evenodd" clip-rule="evenodd" d="M49.7803 32.5184C49.7803 32.5184 50.2662 32.3398 50.5736 32.2113C50.884 32.0824 52.4518 31.5421 52.9347 31.415C53.5251 31.2621 54.8995 30.9291 55.7303 30.8006C56.5595 30.6717 58.2262 30.4917 59.8321 30.4917C61.2081 30.4917 62.4736 30.6036 63.1406 30.6795C63.8084 30.758 65.1506 30.9973 65.6988 31.1336C66.2436 31.2698 67.1581 31.5013 67.6725 31.6721C68.1858 31.8432 68.9881 32.1158 69.2969 32.2536C69.604 32.3898 69.8006 32.4321 69.8521 32.485C69.9018 32.535 69.9114 32.6139 70.0729 32.6895C70.2366 32.7665 70.4758 32.8513 70.4758 32.8513C70.4758 32.8513 70.391 32.9287 70.2621 32.9798C70.1336 33.0313 69.9718 33.1161 69.8429 33.1695C69.7158 33.2191 69.5873 33.2965 69.5873 33.2965C69.5873 33.2965 69.5873 33.1161 69.5192 33.0573C69.4495 32.9965 69.0573 32.7924 68.6473 32.638C68.2673 32.4958 67.6799 32.2869 67.1155 32.125C66.551 31.9628 65.5429 31.6721 64.8681 31.5528C64.1929 31.4332 63.4662 31.3043 62.8077 31.2365C62.1495 31.1684 60.6377 31.0487 59.8503 31.0561C59.0632 31.0654 57.568 31.1502 56.8155 31.2439C56.071 31.3395 54.8403 31.5269 54.1229 31.7054C53.404 31.8873 52.4458 32.125 52.0703 32.2536C51.6936 32.3821 51.241 32.5698 51.0955 32.5773C50.9503 32.5865 50.6432 32.5443 50.5403 32.5443C50.4388 32.5443 50.3358 32.5443 50.2755 32.5606C50.2162 32.5773 50.0529 32.6635 49.9847 32.6302C49.9166 32.5939 49.7803 32.5184 49.7803 32.5184Z" fill="#FFFFFE"/>
<path fill-rule="evenodd" clip-rule="evenodd" d="M73.2457 42.3235C73.2457 42.3235 73.0668 42.1358 72.9713 42.0328C72.8791 41.9298 72.8354 41.4606 72.7235 41.2032C72.6128 40.9461 72.2117 40.4087 71.9709 40.1606C71.7335 39.9139 71.2942 39.4658 70.3831 38.8784C69.5446 38.3409 68.6728 37.8613 67.7405 37.5117C66.8083 37.1591 66.1591 36.8958 65.0387 36.6476C63.9187 36.3991 62.4657 36.1417 60.8842 36.0921C59.3024 36.0406 57.9372 36.1676 57.0124 36.2887C56.0965 36.4083 54.7887 36.6476 53.5916 37.0502C52.3957 37.4513 52.0961 37.5965 51.7205 37.7765C51.3439 37.955 50.4372 38.408 50.1042 38.6317C49.7713 38.8528 49.2413 39.2206 48.9161 39.4265C48.592 39.6306 48.5302 39.7987 48.3346 39.7506C48.0531 39.6824 47.9746 39.4265 47.9746 39.4265C47.9746 39.4265 48.2154 39.1358 48.4468 38.9043C48.6768 38.6743 49.2231 38.2124 49.5653 37.9295C49.9091 37.648 50.575 37.0758 50.6854 36.9728C50.7972 36.8683 51.0953 36.5113 51.0953 36.5113C51.0953 36.5113 51.1894 36.7154 51.362 36.6643C51.5331 36.6143 51.8053 36.4083 51.9687 36.1524C52.1309 35.895 52.4124 35.2972 52.3442 34.8009C52.2761 34.3058 52.2079 33.9458 52.072 33.8517C51.9342 33.758 51.7024 33.5961 51.5331 33.5795C51.362 33.5613 51.3016 33.5869 51.2168 33.5535C51.1305 33.5187 51.0105 33.4161 51.0105 33.4161C51.0105 33.4161 51.4209 33.2632 51.5994 33.1858C51.7813 33.1087 52.5835 32.818 53.1224 32.6728C53.6613 32.5276 54.2331 32.3821 54.9172 32.2458C55.6016 32.1083 56.6098 31.9461 57.4135 31.8691C58.2172 31.7917 59.2598 31.7146 59.8761 31.7239C60.4902 31.7313 61.9179 31.8102 62.4991 31.8765C63.0817 31.9461 64.2094 32.0917 64.8857 32.2458C65.5594 32.3987 66.8265 32.7061 67.382 32.9028C67.9376 33.1009 68.6031 33.3054 68.6728 33.3721C68.7413 33.4417 68.8183 33.5187 68.9198 33.5613C69.0224 33.6035 69.1257 33.6732 69.1257 33.6732C69.1257 33.6732 68.8502 33.9761 68.6639 34.2969C68.1157 35.2306 68.7698 36.4098 69.6402 37.0561C70.7676 37.8932 72.8265 39.1706 73.1835 41.0791C73.2665 41.5258 73.2457 42.3235 73.2457 42.3235Z" fill="#FFFFFE"/>
<path fill-rule="evenodd" clip-rule="evenodd" d="M74.0083 41.2985C73.9387 40.637 73.5409 39.9667 73.2394 39.5278C72.9353 39.0885 72.7446 38.6363 72.4024 38.0596C72.0602 37.4815 71.1068 36.9137 70.4939 36.4807C70.0246 36.1507 69.4209 35.4241 69.4209 34.8459C69.4209 34.5722 69.2828 34.1574 68.9531 34.3433C69.0105 34.203 69.1424 34.0648 69.3057 33.9289C69.6216 33.6641 70.1939 33.3037 70.7316 33.1085C71.2705 32.9118 72.5613 32.5604 73.0913 32.4411C73.6205 32.323 75.1176 32.0744 75.7335 32.0215C76.3487 31.9718 77.4261 31.9204 77.9394 31.9204C78.495 31.9204 79.5631 31.9748 80.3579 32.0567C81.195 32.1415 82.3405 32.3137 83.0931 32.3563C83.8468 32.3985 85.1361 32.4318 85.7009 32.4152C86.2653 32.3985 87.299 32.3563 87.8635 32.347C88.4283 32.3396 90.4883 32.27 91.1724 32.2274C91.8553 32.1852 93.7109 32.0744 94.4042 32.04C95.0972 32.0048 97.2161 31.9626 97.8231 31.9626C98.4301 31.9626 101.055 32.0822 101.721 32.117C102.388 32.1504 104.029 32.2441 104.636 32.2789C105.244 32.3137 106.115 32.347 106.62 32.373C107.122 32.3985 108.619 32.3563 108.945 32.3563C109.269 32.3563 110.407 32.347 111.031 32.323C111.656 32.2956 113.313 32.1685 113.92 32.117C114.527 32.0656 116.083 31.9037 116.578 31.8674C117.075 31.8341 117.569 31.7581 117.785 31.7915C117.998 31.8267 118.246 31.9885 118.314 32.0656C118.382 32.1415 118.673 32.4589 118.886 32.6893C119.101 32.9207 119.315 33.1767 119.348 33.263C119.383 33.3474 119.521 33.5352 119.493 33.6033C119.468 33.673 119.442 33.8015 119.365 33.8441C119.289 33.8863 118.939 34.0393 118.939 34.0393C118.939 34.0393 118.921 33.8774 118.802 33.8259C118.682 33.7744 118.476 33.7063 118.322 33.7593C118.169 33.8093 117.672 34.0226 117.382 34.1511C117.091 34.28 116.613 34.5026 116.391 34.5281C116.169 34.5522 115.298 34.5874 114.716 34.5948C114.133 34.6041 112.432 34.613 111.698 34.6389C110.963 34.6644 108.476 34.6811 107.954 34.69C107.431 34.6978 105.149 34.7233 104.422 34.7233C103.696 34.7233 101.662 34.7656 101.003 34.7585C100.345 34.7493 97.4298 34.8022 96.7879 34.7915C96.1479 34.7826 94.3253 34.8022 93.8394 34.8096C93.352 34.8189 92.6935 34.843 92.0609 34.8856C91.4279 34.9293 90.5383 35.023 90.2842 35.0396C90.0265 35.0567 89.6846 35.0141 89.565 34.9719C89.4453 34.9293 89.4364 34.9111 89.3594 34.9037C89.2835 34.8944 89.0683 34.8611 89.0683 34.8611L89.0187 34.7493C89.0187 34.7493 89.3002 34.6978 89.5302 34.6478C89.7616 34.5948 89.9572 34.4919 90.3687 34.407C90.779 34.3222 91.8127 34.1256 92.3272 34.0393C92.839 33.9544 95.1564 33.5444 95.8239 33.4581C96.4894 33.3733 98.2242 33.1767 98.8313 33.1341C99.4394 33.0919 101.166 32.9541 101.773 32.9207C102.379 32.8859 103.747 32.8256 104.089 32.8344C104.432 32.8437 105.602 32.8678 106.063 32.8933C106.525 32.9207 106.773 32.9207 106.773 32.9207L106.859 32.6211C106.859 32.6211 106.372 32.5952 105.96 32.5696C105.552 32.5441 104.491 32.5274 104.132 32.5274C103.773 32.5274 102.473 32.5348 101.978 32.5604C101.505 32.5863 100.806 32.5059 100.242 32.4848C99.5579 32.4589 98.0109 32.4756 97.3783 32.5274C96.7457 32.577 94.9598 32.7481 94.395 32.8178C93.8305 32.8859 91.8913 33.1674 91.0013 33.3311C90.1116 33.493 88.7279 33.7652 88.0772 33.8863C87.4279 34.0059 86.5983 34.177 85.8553 34.2544C85.1105 34.33 83.6076 34.357 83.0598 34.3481C82.5116 34.3389 80.8968 34.3041 80.0842 34.3133C79.2724 34.3222 77.9061 34.3222 77.1094 34.4163C76.315 34.51 75.6387 34.6644 75.2283 34.8022C74.8183 34.9385 74.3991 35.0926 74.1187 35.297C73.8357 35.5015 73.7072 35.7237 73.7161 35.8011C73.7253 35.8781 73.7494 35.9281 73.7494 35.9281L73.9628 35.9978C73.9628 35.9978 73.7583 36.16 73.6391 36.263C73.5194 36.3641 73.3905 36.6048 73.3483 36.8093C73.3061 37.0152 73.2365 37.51 73.229 37.7159C73.2198 37.9219 73.1939 38.0067 73.2639 38.17C73.3302 38.3319 73.6557 38.913 73.7842 39.1615C73.9128 39.4081 74.2535 39.9559 74.3487 40.1178C74.4428 40.28 74.6216 40.5115 74.7498 40.7081C74.8787 40.9052 75.0998 41.3756 75.1253 41.5285C75.1528 41.683 75.1528 41.9041 75.1528 42.1267V43.2389C75.1528 43.4174 75.1361 43.563 75.0998 43.6052C75.0665 43.6478 74.9631 43.7337 74.9542 43.8293C74.9465 43.9215 74.8876 44.1363 74.862 44.2485C74.8365 44.3574 74.7498 44.5893 74.7498 44.5893C74.7498 44.5893 74.6139 44.3152 74.605 44.2819C74.5972 44.2485 74.6639 44.0244 74.6394 43.7007C74.6139 43.3752 74.1187 42.343 74.0083 41.2985Z" fill="#FFFFFE"/>
<path fill-rule="evenodd" clip-rule="evenodd" d="M73.6982 36.7246C73.6982 36.7246 73.8301 36.5083 74.1856 36.272C74.4945 36.0661 74.9986 35.8439 75.3056 35.7498C75.6131 35.6561 76.7423 35.4002 77.2553 35.3579C77.7686 35.3139 79.1456 35.305 79.5968 35.2972C80.0508 35.2883 80.9153 35.3139 81.2056 35.305C81.4964 35.2972 81.9053 35.305 82.2142 35.305C82.5212 35.305 83.1112 35.2972 83.299 35.2972C83.4867 35.2972 83.8471 35.279 83.9497 35.305C84.0512 35.3305 84.2404 35.3653 84.2664 35.4427C84.2904 35.5198 84.316 35.5879 84.2664 35.6727C84.2134 35.7576 84.2223 35.8694 84.2223 35.9027V35.9813C84.2223 35.9813 84.1616 36.0146 84.1012 36.0572C84.0423 36.1009 83.7605 36.2631 83.7605 36.2631C83.7605 36.2631 83.7605 36.2024 83.7093 36.092C83.6593 35.9813 83.4956 35.8861 83.376 35.8605C83.2568 35.8361 82.8208 35.8105 82.6312 35.8013C82.4442 35.7935 81.9912 35.7846 81.8112 35.7665C81.6327 35.7498 81.5464 35.7239 81.4601 35.7239C81.3753 35.7239 81.3071 35.7331 81.239 35.7846C81.1693 35.8361 81.1453 35.8861 81.103 35.895C81.0605 35.9027 80.9742 35.8861 80.9393 35.8861C80.906 35.8861 80.8471 35.9361 80.9575 36.0405C81.1193 36.1931 81.3586 36.2205 81.5719 36.2539C81.7868 36.2887 82.0853 36.3387 82.3075 36.3824C82.5301 36.425 82.8301 36.4765 83.0253 36.5202C83.2219 36.5627 83.4112 36.5702 83.4779 36.5794C83.5471 36.5868 83.6667 36.6383 83.6593 36.7079C83.6501 36.7746 83.6323 36.8365 83.6064 36.8957C83.5805 36.9561 83.5805 37.0665 83.5897 37.1183C83.599 37.1694 83.5805 37.2198 83.5304 37.2542C83.4779 37.289 83.2656 37.365 83.2127 37.392C83.1627 37.4179 83.069 37.4087 83.069 37.4087C83.069 37.4087 83.0945 37.2724 83.069 37.2376C83.0419 37.2031 82.966 37.1272 82.8042 37.0757C82.6408 37.0242 82.2142 36.9124 82.0079 36.8698C81.8034 36.8276 81.4527 36.7339 81.2223 36.6913C80.9908 36.649 80.8364 36.5794 80.7697 36.6383C80.7005 36.6987 80.6838 36.7502 80.6412 36.7579C80.5986 36.7668 80.5293 36.7339 80.4867 36.7746C80.4427 36.8187 80.3838 36.8698 80.426 36.9198C80.4705 36.9727 80.6249 37.0665 80.7775 37.1183C80.9319 37.1694 81.436 37.315 81.6586 37.3831C81.8793 37.4513 82.2653 37.6057 82.4697 37.6479C82.6756 37.6902 82.889 37.7583 82.9327 37.8702C82.9749 37.9824 82.966 38.0913 82.889 38.1609C82.8116 38.229 82.7949 38.3227 82.7767 38.3653C82.7601 38.409 82.7345 38.5198 82.7345 38.5198C82.7345 38.5198 82.5379 38.6468 82.4967 38.665L82.3075 38.742C82.3075 38.742 82.3756 38.6561 82.3153 38.5105C82.2564 38.3653 82.0853 38.2805 81.8627 38.1687C81.6419 38.0579 81.1875 37.8961 81.0164 37.8357C80.8453 37.775 80.2916 37.5539 80.1627 37.5102C80.0342 37.4679 79.889 37.4179 79.7693 37.442C79.6482 37.4679 79.5879 37.5372 79.6238 37.5965C79.6571 37.6553 79.7512 37.6827 79.7512 37.7509C79.7512 37.819 79.7512 37.8779 79.7164 37.8961C79.6834 37.9127 79.6738 37.9205 79.6738 37.9205C79.6738 37.9205 79.9645 38.1187 80.1627 38.2109C80.3582 38.3065 80.8453 38.5635 80.9742 38.6302C81.103 38.6998 81.5042 38.8876 81.5975 38.9557C81.6916 39.0239 81.8886 39.1357 81.8538 39.2294C81.8205 39.3235 81.7867 39.4779 81.7686 39.5279C81.7508 39.5809 81.7867 39.6231 81.7008 39.6565C81.6142 39.6898 81.2982 39.7761 81.2982 39.7761C81.2982 39.7761 81.2905 39.6987 81.2727 39.6565C81.256 39.6139 81.1964 39.5368 81.0256 39.4353C80.8549 39.3327 80.2479 38.9724 80.0934 38.8965C79.939 38.8179 79.5545 38.6135 79.4693 38.5365C79.3834 38.4609 79.1701 38.2805 79.0927 38.2368C79.0171 38.1942 78.8612 38.1187 78.7597 38.2202C78.6782 38.3031 78.6401 38.4683 78.6901 38.5272C78.743 38.5879 78.8553 38.6909 78.8553 38.6909C78.8553 38.6909 78.7523 38.7679 78.769 38.8105C78.7856 38.8542 79.0593 39.0494 79.2638 39.195C79.4693 39.3402 80.0071 39.7094 80.1449 39.8016C80.2812 39.8957 80.5716 40.0757 80.6671 40.162C80.7608 40.2468 80.7864 40.3239 80.7171 40.3998C80.6486 40.4783 80.6249 40.5539 80.6249 40.5539C80.6249 40.5539 80.6319 40.6568 80.6319 40.6994C80.6319 40.7431 80.6153 40.7931 80.6153 40.7931C80.6153 40.7931 80.5716 40.8353 80.4593 40.8539C80.3505 40.8705 80.1886 40.8794 80.1886 40.8794C80.1886 40.8794 80.1523 40.8279 80.1627 40.7509C80.1705 40.6735 80.0979 40.622 79.9812 40.5209C79.836 40.392 79.4256 40.109 79.2212 39.9639C79.0171 39.8183 78.6145 39.5535 78.5208 39.452C78.4268 39.3494 78.2542 39.1009 78.1619 39.0239C78.0664 38.9465 77.9397 38.8616 77.829 38.9042C77.7168 38.9465 77.5975 39.0327 77.5808 39.1357C77.5642 39.2372 77.546 39.3142 77.6142 39.3661C77.6819 39.4172 77.776 39.4779 77.776 39.5113C77.776 39.5442 77.6653 39.5716 77.6912 39.6305C77.7168 39.6898 78.0756 39.9561 78.2375 40.0924C78.3997 40.2287 78.9568 40.6661 79.0927 40.7853C79.2305 40.9053 79.4864 41.1442 79.5212 41.2472C79.5545 41.3502 79.5379 41.562 79.4956 41.6228C79.4527 41.6831 79.3334 41.7072 79.2212 41.7257C79.1093 41.7435 78.9642 41.7602 78.9642 41.7602C78.9642 41.7602 79.0171 41.6316 78.9897 41.5802C78.9642 41.5287 78.7268 41.3742 78.5449 41.229C78.3664 41.0839 77.829 40.6313 77.6231 40.4602C77.4171 40.2905 77.2131 40.0835 77.1449 39.9379C77.0753 39.7927 76.9556 39.5976 76.7845 39.5976C76.6134 39.5976 76.4427 39.6231 76.3393 39.7594C76.2368 39.8957 76.2368 40.0424 76.3153 40.1013C76.3927 40.162 76.5271 40.2468 76.4849 40.2709L76.3319 40.3665C76.3319 40.3665 76.4938 40.4631 76.6997 40.6402C76.939 40.8446 77.3493 41.179 77.5034 41.3246C77.6564 41.4698 77.9727 41.7694 78.033 41.8194C78.0923 41.8709 78.1786 42.0235 78.1697 42.1357C78.1619 42.2476 78.1453 42.3931 78.109 42.452C78.0756 42.5128 78.1197 42.555 78.033 42.5976C77.9471 42.6413 77.7853 42.6413 77.726 42.6413C77.6653 42.6413 77.6142 42.6231 77.6142 42.6231C77.6142 42.6231 77.7593 42.5128 77.7519 42.4598C77.7427 42.4098 77.5642 42.2294 77.443 42.1268C77.323 42.0235 76.7423 41.5287 76.5271 41.332C76.3153 41.1353 76.0068 40.8279 75.9382 40.6402C75.8705 40.4524 75.8705 40.212 75.7582 40.059C75.6479 39.9046 75.4012 39.7168 75.289 39.5535C75.1771 39.3916 74.8108 38.8268 74.6397 38.4776C74.4675 38.1276 74.2886 37.8613 74.2464 37.5631C74.2042 37.2635 74.2371 37.085 74.1856 36.9894C74.1342 36.8957 74.0149 36.7502 73.9556 36.7502C73.8953 36.7502 73.6982 36.7246 73.6982 36.7246Z" fill="#FFFFFE"/>
<path fill-rule="evenodd" clip-rule="evenodd" d="M75.0752 40.9824C75.0752 40.9824 75.5445 41.5213 75.6641 41.6228C75.7852 41.7258 76.0333 41.8783 76.1089 41.9224C76.1863 41.9646 76.4767 42.2554 76.5541 42.3491C76.6311 42.4432 76.8189 42.6232 76.81 42.7335C76.8022 42.8458 76.7159 43.1454 76.6478 43.2121C76.5785 43.2817 76.4767 43.3661 76.3908 43.3769C76.307 43.3828 76.153 43.3572 76.153 43.3572C76.153 43.3572 76.3408 43.3072 76.3408 43.2302C76.3408 43.1528 76.307 43.085 76.1696 42.9484C76.0333 42.8124 75.9804 42.7595 75.8352 42.5639C75.6896 42.3672 75.5719 42.1613 75.5719 42.1613L75.4689 42.1946L75.3659 42.2039C75.3659 42.2039 75.3311 41.8783 75.2885 41.6998C75.2448 41.5213 75.1859 41.3639 75.1619 41.2806C75.1252 41.1702 75.0752 40.9824 75.0752 40.9824Z" fill="#FFFFFE"/>
<path fill-rule="evenodd" clip-rule="evenodd" d="M75.0244 44.8631C75.0244 44.8631 75.144 44.5802 75.1607 44.4698C75.1774 44.3591 75.2381 44.1609 75.247 44.1109L75.2726 43.9746C75.2726 43.9746 75.4937 44.2654 75.5637 44.3487C75.6314 44.435 75.8629 44.615 75.9477 44.7346C76.0326 44.8542 76.4185 45.3491 76.5807 45.5731C76.7426 45.7939 77.204 46.4102 77.2888 46.5298C77.3751 46.6491 77.6322 47.0172 77.6144 47.1202C77.5977 47.2213 77.5796 47.3502 77.5296 47.4528C77.4777 47.5557 77.4266 47.6665 77.3751 47.6753C77.3233 47.6828 77.0755 47.692 77.0755 47.692C77.0755 47.692 77.1433 47.5983 77.1433 47.5376C77.1433 47.4787 77.0329 47.3002 76.88 47.2139C76.7259 47.1291 76.4263 46.9657 76.3581 46.8883C76.2896 46.8113 76.0796 46.2557 75.9826 46.0591C75.8629 45.8213 75.657 45.4279 75.5285 45.2476C75.4 45.0676 75.3152 44.8798 75.2637 44.8631C75.2122 44.8465 75.2381 44.8891 75.1607 44.8965C75.0837 44.9057 75.0244 44.8631 75.0244 44.8631Z" fill="#FFFFFE"/>
<path fill-rule="evenodd" clip-rule="evenodd" d="M75.418 43.5811C75.418 43.5811 75.7328 43.6914 75.9128 43.6914C76.0928 43.6914 76.2306 43.7007 76.2732 43.684C76.3154 43.6659 76.3928 43.5296 76.5713 43.4855C76.7517 43.4433 76.9209 43.4692 77.0932 43.5977C77.2643 43.7262 78.1198 44.5814 78.2469 44.7011C78.3754 44.8207 78.9309 45.3581 79.102 45.5199C79.2728 45.6833 79.5469 45.9559 79.5983 46.0677C79.6483 46.1796 79.6739 46.2736 79.6317 46.3329C79.5894 46.3918 79.5291 46.4355 79.5032 46.5129C79.4791 46.5899 79.4606 46.761 79.4169 46.811C79.3746 46.864 79.3154 46.9229 79.1957 46.9229C79.0761 46.9229 78.9569 46.9062 78.9569 46.9062C78.9569 46.9062 79.0928 46.8292 79.0928 46.7444C79.0928 46.6581 79.0506 46.5462 78.9309 46.4781C78.8113 46.4099 78.6843 46.3418 78.5024 46.2466C78.3243 46.154 78.1787 46.0255 78.0498 45.8799C77.9217 45.7348 77.6232 45.3322 77.4776 45.1703C77.3328 45.0081 76.9817 44.5559 76.8194 44.4014C76.6576 44.2485 76.4939 44.1033 76.2894 44.0592C76.0854 44.017 76.0324 44.0077 75.9902 44.0077C75.9476 44.0077 75.8613 44.1455 75.878 44.1788C75.8961 44.2122 75.795 44.1273 75.7083 44.017C75.6224 43.9048 75.418 43.5811 75.418 43.5811Z" fill="#FFFFFE"/>
<path fill-rule="evenodd" clip-rule="evenodd" d="M77.042 43.1878C77.042 43.1878 77.0661 43.129 77.0753 43.0427C77.0842 42.9564 77.1009 42.846 77.145 42.8549C77.1872 42.8623 77.4005 42.9638 77.5461 42.9638C77.6912 42.9638 77.7094 42.9397 77.7094 42.9397C77.7094 42.9397 77.7853 42.8112 77.9638 42.7764C78.1453 42.743 78.2042 42.7352 78.2635 42.7352C78.3242 42.7352 78.4087 42.7171 78.5979 42.7945C78.7857 42.8715 79.3079 43.2986 79.5031 43.4527C79.6998 43.6071 80.4961 44.2308 80.7172 44.4093C80.9394 44.5897 81.1964 44.7604 81.2649 44.8286C81.3331 44.8982 81.5553 45.1101 81.5042 45.2056C81.4527 45.2978 81.342 45.4097 81.315 45.5127C81.2905 45.6156 81.2816 45.7612 81.2649 45.8201C81.2483 45.8804 81.1272 45.9064 81.0683 45.8971C81.0075 45.8897 80.8364 45.8804 80.8364 45.8804C80.8364 45.8804 80.932 45.8127 80.9575 45.7445C80.9816 45.6749 80.932 45.5975 80.8364 45.5293C80.7427 45.4615 80.5898 45.3586 80.4094 45.2738C80.2294 45.189 79.9572 44.9575 79.7346 44.7771C79.5124 44.5986 78.9309 44.0597 78.8024 43.9401C78.6735 43.819 78.2724 43.4786 78.1698 43.436C78.0664 43.3923 77.7687 43.3408 77.6564 43.3167C77.5461 43.2908 77.3827 43.2545 77.3827 43.2545C77.3827 43.2545 77.3083 43.3664 77.2735 43.3664C77.2038 43.3664 77.2131 43.359 77.2131 43.359C77.2131 43.359 77.2205 43.359 77.1616 43.3075C77.1009 43.2545 77.042 43.1878 77.042 43.1878Z" fill="#FFFFFE"/>
<path fill-rule="evenodd" clip-rule="evenodd" d="M78.4688 42.3235L78.4784 42.1705C78.4784 42.1705 78.5884 42.1279 78.7339 42.1279C78.8791 42.1279 79.0169 42.1357 79.1788 42.075C79.341 42.0161 79.341 42.0328 79.4525 41.9646C79.5617 41.8965 79.6147 41.8798 79.7269 41.8102C79.8358 41.7424 79.8113 41.6483 79.8799 41.6394C79.9476 41.6316 80.1536 41.6057 80.2125 41.6394C80.2713 41.6739 80.7076 42.0253 80.9647 42.1779C81.2221 42.3324 81.9984 42.8109 82.2895 42.9909C82.5799 43.1709 83.0158 43.4087 83.161 43.5372C83.3065 43.6661 83.4021 43.7353 83.3925 43.8553C83.3854 43.9731 83.2899 44.0594 83.2399 44.1531C83.1865 44.2472 83.1976 44.3335 83.161 44.409C83.1276 44.4865 83.1021 44.5635 83.1021 44.5635L82.7432 44.6409C82.7432 44.6409 82.8373 44.5542 82.8206 44.462C82.8039 44.3668 82.7432 44.2731 82.5888 44.1883C82.4343 44.102 82.2302 44.0928 82.0595 44.0339C81.8899 43.9731 81.5884 43.769 81.4099 43.6313C81.2295 43.495 80.7773 43.1453 80.5625 43.0002C80.3502 42.8546 80.0413 42.6065 79.8888 42.5368C79.7343 42.4687 79.4525 42.4098 79.2891 42.4005C79.1262 42.3913 78.9306 42.4098 78.8973 42.4005C78.8625 42.3913 78.811 42.5805 78.7428 42.5202C78.6732 42.4609 78.6476 42.452 78.5628 42.4005C78.4784 42.349 78.4688 42.3235 78.4688 42.3235Z" fill="#FFFFFE"/>
<path fill-rule="evenodd" clip-rule="evenodd" d="M80.6152 41.1443C80.6152 41.1443 80.8452 41.1276 80.8971 41.025C80.9471 40.922 80.9304 40.6994 80.9471 40.5965C80.9649 40.4935 80.956 40.4343 80.9997 40.4254C81.0419 40.4176 81.1541 40.4935 81.2634 40.5043C81.3752 40.5117 81.513 40.5043 81.6915 40.5965C81.8719 40.6917 82.6408 41.0928 83.0434 41.2639C83.4445 41.435 84.2482 41.8543 84.4964 41.948C84.743 42.042 85.153 42.1946 85.2152 42.3069C85.2741 42.4187 85.3075 42.5383 85.2393 42.6487C85.1715 42.7594 85.1197 42.8198 85.1456 42.8972C85.1715 42.9743 85.2393 43.0665 85.1789 43.1106C85.1197 43.1528 84.9749 43.162 84.8808 43.1954C84.7871 43.2302 84.6838 43.2302 84.6838 43.2302C84.6838 43.2302 84.7704 43.1709 84.7519 43.0757C84.7352 42.9835 84.6508 42.8546 84.4704 42.8109C84.2904 42.7683 84.086 42.7594 83.9227 42.7169C83.7604 42.6746 83.6156 42.6065 83.3671 42.4609C83.1189 42.3157 82.6149 42.0161 82.3501 41.8798C82.0852 41.7424 81.5975 41.4865 81.4267 41.3757C81.256 41.2639 81.1963 41.2124 81.1104 41.1868C81.0256 41.1609 80.9138 41.1535 80.8549 41.1702C80.7941 41.1868 80.6152 41.1443 80.6152 41.1443Z" fill="#FFFFFE"/>
<path fill-rule="evenodd" clip-rule="evenodd" d="M82.0518 39.7596C82.0518 39.7596 82.094 39.6233 82.1184 39.4689C82.1455 39.3144 82.1106 39.2374 82.1621 39.2207C82.214 39.2041 82.2999 39.2463 82.4088 39.2374C82.521 39.2281 82.6329 39.2207 82.7084 39.2648C82.7855 39.307 83.1625 39.4522 83.3503 39.5189C83.5381 39.5885 84.5129 39.9381 84.8381 40.0593C85.1621 40.1789 85.7525 40.3922 86.0084 40.4859C86.2655 40.5815 86.4366 40.6055 86.5303 40.6904C86.6243 40.7767 86.7103 40.8963 86.7014 41.0674C86.6936 41.2385 86.7269 41.2896 86.6588 41.3744C86.5895 41.4607 86.5729 41.4774 86.5655 41.5289C86.5562 41.5789 86.6243 41.6741 86.5818 41.7259C86.5395 41.777 86.4699 41.7863 86.3169 41.8104C86.1629 41.8363 86.0869 41.853 86.0869 41.853C86.0869 41.853 86.214 41.7167 86.0943 41.6059C85.9751 41.4959 85.9329 41.4263 85.6584 41.3248C85.3847 41.2218 84.9484 41.0415 84.7518 40.9644C84.5551 40.8885 83.7092 40.5026 83.4699 40.4178C83.231 40.3315 82.7432 40.1441 82.5721 40.0504C82.401 39.9563 82.3332 39.9215 82.2818 39.8533C82.2303 39.7852 82.0518 39.7596 82.0518 39.7596Z" fill="#FFFFFE"/>
<path fill-rule="evenodd" clip-rule="evenodd" d="M83.1115 38.3398C83.1115 38.3398 83.0949 37.922 83.1541 37.9039C83.2149 37.8868 83.386 37.9383 83.4615 37.9294C83.5386 37.922 83.7519 37.922 83.9501 37.9735C84.1452 38.0246 85.2323 38.2987 85.6589 38.3913C86.086 38.485 86.6582 38.6228 87.0182 38.6817C87.3771 38.742 87.6164 38.742 87.6934 38.8709C87.7704 38.9994 87.7615 39.272 87.7541 39.4187C87.7449 39.5628 87.7871 39.8713 87.7615 39.9139C87.7375 39.9561 87.5571 40.0335 87.4286 40.0846C87.3015 40.1346 87.2482 40.1605 87.2482 40.1605C87.2482 40.1605 87.309 40.0061 87.2227 39.8968C87.1378 39.785 86.8034 39.6491 86.5823 39.5883C86.3601 39.5279 85.7193 39.3157 85.3686 39.2128C85.0175 39.1102 84.4364 38.9131 84.2408 38.8617C84.0427 38.8105 83.8127 38.7513 83.6764 38.665C83.5386 38.5802 83.393 38.4257 83.3341 38.3913C83.2738 38.3579 83.1115 38.3398 83.1115 38.3398Z" fill="#FFFFFE"/>
<path fill-rule="evenodd" clip-rule="evenodd" d="M83.8971 36.7928L83.8896 36.631C83.8896 36.631 84.0848 36.4432 84.1378 36.4432C84.1878 36.4432 84.3256 36.4158 84.5389 36.4339C84.7522 36.4521 85.6667 36.5614 86.0267 36.6217C86.3856 36.681 87.3437 36.8095 87.6163 36.8443C87.8919 36.8791 88.3108 36.8517 88.4456 36.8884C88.6771 36.9473 88.6422 37.1528 88.6604 37.2969C88.6771 37.4436 88.703 37.6647 88.6845 37.7236C88.6678 37.7843 88.5396 37.9054 88.4033 38.0069C88.2652 38.1095 88.1293 38.1869 88.0533 38.2291C87.9748 38.2714 88.0778 38.0506 87.993 37.9643C87.9404 37.9114 87.8052 37.8447 87.5904 37.8025C87.377 37.7602 87.0348 37.6814 86.8293 37.6388C86.6248 37.5965 85.8378 37.4436 85.5211 37.3832C85.2067 37.3239 84.8463 37.2876 84.633 37.1862C84.4196 37.0832 84.283 36.9125 84.1637 36.861C84.0426 36.8095 83.8971 36.7928 83.8971 36.7928Z" fill="#FFFFFE"/>
<path fill-rule="evenodd" clip-rule="evenodd" d="M84.5218 35.665C84.5218 35.665 84.4629 35.4939 84.4629 35.4502C84.4629 35.4169 84.4796 35.3654 84.4796 35.3654C84.4796 35.3654 84.8292 35.3821 85.0684 35.3398C85.3073 35.2958 86.0173 35.1869 86.4699 35.1173C86.9221 35.0491 87.7777 34.8961 88.0607 34.8432C88.3422 34.7932 88.6859 34.7328 88.804 34.7843C88.9236 34.8358 89.0096 34.9554 89.0262 35.075C89.0444 35.1943 89.1384 35.4595 89.1718 35.5698C89.2062 35.6817 89.2929 35.8528 89.2747 35.9043C89.2581 35.9558 89.1114 36.1343 89.0096 36.2298C88.907 36.3235 88.6584 36.5628 88.6584 36.5628C88.6584 36.5628 88.6936 36.3658 88.6162 36.2465C88.5407 36.1254 88.3847 35.9798 88.1892 35.921C87.9925 35.8606 87.1888 35.8013 86.9059 35.8106C86.6244 35.818 85.9329 35.8273 85.6073 35.818C85.2818 35.8106 84.9836 35.7513 84.8459 35.6895C84.7096 35.6306 84.7488 35.6484 84.6929 35.6306C84.5903 35.5969 84.5218 35.665 84.5218 35.665Z" fill="#FFFFFE"/>
<path fill-rule="evenodd" clip-rule="evenodd" d="M89.1387 36.5881C89.1387 36.5881 89.4716 36.2281 89.5579 36.1266C89.6424 36.0237 89.7276 35.8948 89.7865 35.8781C89.8487 35.8618 90.0679 35.8903 90.2057 35.8437C90.3872 35.7829 91.5405 35.7933 91.8479 35.7829C92.1564 35.7755 94.2831 35.7755 94.745 35.7755C95.2083 35.7755 98.2157 35.7329 98.7135 35.7403C99.2083 35.7496 101.388 35.7403 101.943 35.7237C102.501 35.7074 105.184 35.7237 105.826 35.6981C106.466 35.674 109.808 35.6559 110.365 35.6374C110.921 35.6211 113.501 35.5785 113.972 35.5696C114.441 35.5618 115.374 35.5455 115.664 35.5288C115.955 35.5088 116.22 35.4759 116.332 35.4922C116.442 35.5088 116.46 35.6211 116.493 35.6907C116.527 35.7574 116.69 36.2792 116.768 36.5096C116.843 36.7411 116.904 37.0485 116.913 37.1937C116.921 37.3388 116.972 37.5192 116.939 37.5537C116.904 37.5888 116.597 37.767 116.536 37.784C116.477 37.8007 116.4 37.8174 116.4 37.8174C116.4 37.8174 116.46 37.7159 116.416 37.6296C116.374 37.5462 116.194 37.4177 116.083 37.4011C115.972 37.3814 115.81 37.4177 115.589 37.5025C115.365 37.5888 114.715 37.7748 114.347 37.8533C113.981 37.9292 113.819 37.9822 113.194 37.9988C112.57 38.0155 111.125 38.0066 110.511 37.9822C109.895 37.9548 108.064 37.9037 107.202 37.8611C106.338 37.8174 104.202 37.7081 103.456 37.6718C102.712 37.6385 100.421 37.5025 99.8761 37.4677C99.3283 37.4344 96.6535 37.2722 96.0964 37.2285C95.5409 37.1859 92.7453 37.0151 92.2927 36.9725C91.8387 36.9288 90.8657 36.8607 90.5657 36.844C90.2664 36.8274 89.8487 36.7925 89.6942 36.75C89.5398 36.7077 89.5398 36.6474 89.4202 36.6214C89.3005 36.5955 89.1387 36.5881 89.1387 36.5881Z" fill="#FFFFFE"/>
<path fill-rule="evenodd" clip-rule="evenodd" d="M88 38.7163C88 38.7163 88.3948 38.4756 88.5644 38.3397C88.7356 38.2034 88.9322 38.0763 88.9759 37.9549C89.0185 37.8356 89.0185 37.7671 89.0185 37.7671C89.0185 37.7671 90.2233 37.8023 90.4974 37.8278C90.7696 37.8523 92.0956 37.9382 92.4467 37.9641C92.7967 37.9901 94.9244 38.1426 95.5922 38.1852C96.2593 38.2289 99.2504 38.4334 99.8482 38.4682C100.448 38.503 102.833 38.6482 103.422 38.683C104.012 38.7163 106.294 38.8282 107.039 38.8615C107.783 38.8952 110.381 38.9645 110.826 38.9738C111.27 38.9812 112.723 38.9978 112.98 38.9812C113.236 38.9645 113.552 38.9389 113.723 38.9389C113.894 38.9389 114.09 38.9556 114.099 39.1356C114.109 39.3141 114.073 40.0667 113.997 40.3149C113.92 40.563 113.749 40.973 113.62 41.0838C113.492 41.1956 113.296 41.2986 113.296 41.2986C113.296 41.2986 113.372 41.1367 113.322 41.0412C113.271 40.9475 113.091 40.8097 112.964 40.8186C112.835 40.8263 112.074 41.0156 111.698 41.0578C111.321 41.1004 110.698 41.1701 110.227 41.1608C109.758 41.1534 108.671 41.1093 108.123 41.0671C107.578 41.0249 106.089 40.9126 105.346 40.8371C104.603 40.7597 102.576 40.5356 101.636 40.4267C100.694 40.3149 98.7963 40.0756 98.1319 39.9908C97.4641 39.9045 95.2922 39.6138 94.7111 39.5293C94.1296 39.4426 92.5737 39.2386 92.147 39.1689C91.7189 39.1008 90.3763 38.9041 89.993 38.8526C89.607 38.8026 89.3681 38.7497 89.197 38.7497C89.0259 38.7497 88.8974 38.733 88.6763 38.7497C88.4537 38.7663 88.4889 38.7663 88.3859 38.7663C88.2904 38.7663 88.257 38.7586 88.1544 38.7497C88.0511 38.7419 88 38.7163 88 38.7163Z" fill="#FFFFFE"/>
<path fill-rule="evenodd" clip-rule="evenodd" d="M86.9756 40.648C86.9756 40.648 87.2993 40.545 87.4793 40.4602C87.6597 40.3739 87.9504 40.2984 88.0348 40.1532C88.1215 40.0076 88.1382 39.9728 88.1289 39.8791C88.1215 39.785 88.0956 39.6987 88.0956 39.6987C88.0956 39.6987 88.66 39.7335 88.8811 39.7506C89.1037 39.7684 90.1723 39.9306 90.5052 39.9728C90.84 40.0165 92.4715 40.271 92.9163 40.3332C93.3611 40.3921 96.3797 40.8113 96.9682 40.8884C97.5586 40.9643 100.141 41.2987 100.619 41.3502C101.097 41.4002 104.004 41.7272 104.457 41.768C104.91 41.8102 106.543 41.9647 107.106 42.0069C107.671 42.051 108.877 42.1191 109.398 42.1269C109.92 42.1358 110.296 42.1191 110.432 42.1613C110.569 42.2054 110.672 42.2976 110.647 42.3932C110.621 42.4869 110.51 43.3072 110.459 43.4695C110.407 43.6328 110.323 43.9491 110.244 44.0595C110.168 44.1702 110.108 44.2987 109.979 44.3684C109.85 44.435 109.8 44.4532 109.8 44.4532C109.8 44.4532 109.894 44.2732 109.843 44.1702C109.792 44.0687 109.604 43.8884 109.492 43.8795C109.381 43.8702 108.953 43.9491 108.671 43.9913C108.39 44.0339 107.869 44.0943 107.516 44.1198C107.167 44.1443 106.723 44.1791 106.499 44.1702C106.278 44.161 105.859 44.1198 105.491 44.0687C105.123 44.0158 103.773 43.8295 103.294 43.7506C102.816 43.675 101.243 43.4013 100.586 43.2817C99.926 43.1621 97.5919 42.6913 97.1393 42.5884C96.6867 42.4869 94.9504 42.1102 94.5145 42.0069C94.0789 41.9058 92.1808 41.4606 91.7448 41.3502C91.3089 41.2384 90.0967 40.9565 89.7697 40.8795C89.4456 40.8021 88.7797 40.6402 88.5997 40.6054C88.4193 40.5721 88.2152 40.521 88.0608 40.5617C87.9063 40.6054 87.59 40.6995 87.4889 40.7343C87.3856 40.7691 87.3689 40.7854 87.2145 40.7598C87.0615 40.7343 86.9756 40.648 86.9756 40.648Z" fill="#FFFFFE"/>
<path fill-rule="evenodd" clip-rule="evenodd" d="M85.5042 42.2971C85.5042 42.2971 85.8209 42.2805 85.966 42.2471C86.1112 42.2127 86.479 42.1353 86.6427 42.0853C86.8046 42.0323 86.8635 42.0064 86.8816 41.922C86.8983 41.8371 86.8635 41.6053 86.8905 41.5116C86.9149 41.4179 86.9575 41.3057 86.9575 41.3057C86.9575 41.3057 87.3086 41.3831 87.4538 41.392C87.5994 41.4012 88.0957 41.5042 88.2997 41.5542C88.506 41.6053 90.8475 42.1942 91.2149 42.2897C91.5827 42.3834 94.259 43.0327 94.719 43.1283C95.1823 43.2205 97.3605 43.7005 97.849 43.802C98.3368 43.9046 101.576 44.5027 102.115 44.589C102.653 44.6738 104.499 44.9642 104.936 45.0079C105.372 45.0505 106.005 45.1186 106.133 45.1534C106.262 45.1883 106.38 45.2383 106.354 45.3923C106.32 45.606 106.14 46.0342 106.038 46.2386C105.936 46.4431 105.773 46.8123 105.594 47.0183C105.414 47.2223 105.295 47.3845 105.175 47.4616C105.055 47.5386 105.013 47.5631 105.013 47.5631C105.013 47.5631 105.116 47.4101 105.09 47.3071C105.063 47.2057 104.91 47.0679 104.756 47.0423C104.602 47.0183 104.268 47.0349 103.935 47.0349C103.604 47.0349 102.628 46.9908 101.772 46.8623C100.919 46.7349 99.6094 46.5216 98.7301 46.316C97.849 46.1097 96.5916 45.812 95.6938 45.5546C94.7979 45.2986 93.319 44.8794 92.3849 44.5646C91.4546 44.2468 90.2586 43.8549 89.7364 43.6657C89.2142 43.4779 87.6838 42.939 87.4449 42.8453C87.2057 42.7512 87.0438 42.7164 86.8635 42.6997C86.6849 42.6831 86.4623 42.7257 86.2735 42.6997C86.0857 42.6742 85.8542 42.6138 85.7527 42.5801C85.6497 42.5468 85.5742 42.5212 85.5301 42.4427C85.4875 42.3653 85.5042 42.2971 85.5042 42.2971Z" fill="#FFFFFE"/>
<path fill-rule="evenodd" clip-rule="evenodd" d="M83.7256 43.8023C83.7256 43.8023 84.2989 43.666 84.5901 43.5537C84.8352 43.4615 85.1545 43.3237 85.4282 43.3493C85.7008 43.3752 86.2908 43.5719 86.6241 43.6993C86.9571 43.8278 88.1452 44.2471 88.463 44.3667C88.7793 44.4878 91.4964 45.4019 91.9323 45.5382C92.3682 45.6745 94.7293 46.3767 95.2241 46.513C95.7189 46.6504 97.9941 47.2319 98.533 47.3408C99.0701 47.4526 99.9589 47.6149 100.235 47.6678C100.507 47.7178 100.764 47.786 100.788 47.9145C100.814 48.043 100.797 48.2489 100.746 48.3504C100.696 48.4534 100.609 48.7863 100.532 48.9923C100.455 49.1963 100.352 49.4612 100.243 49.5823C100.131 49.7019 99.8834 49.7534 99.8834 49.7534C99.8834 49.7534 100.012 49.6671 99.9949 49.5386C99.9767 49.4115 99.9345 49.3508 99.8315 49.2826C99.7289 49.213 99.6697 49.1541 99.5245 49.1467C99.379 49.1374 99.0023 49.18 98.7115 49.1963C98.4208 49.213 97.4204 49.213 97.0286 49.213C96.6349 49.213 96.2415 49.2389 95.9508 49.2056C95.6601 49.1708 95.3012 49.1104 94.8489 48.983C94.3949 48.856 93.2764 48.4441 92.7782 48.2489C92.2834 48.0508 90.8045 47.3937 90.4108 47.2152C90.0175 47.0337 88.5478 46.3071 88.0604 46.0604C87.5745 45.8123 86.8812 45.4686 86.5045 45.2641C86.1293 45.0597 85.316 44.6149 85.1027 44.5119C84.8893 44.4089 84.6578 44.3334 84.4778 44.2986C84.2989 44.2637 84.0419 44.1623 83.9664 44.1274C83.889 44.0926 83.7012 44.0426 83.7012 44.0426L83.7256 43.8023Z" fill="#FFFFFE"/>
<path fill-rule="evenodd" clip-rule="evenodd" d="M81.8372 45.0929C81.8372 45.0929 82.4443 44.957 82.5983 44.8978C82.7513 44.8374 83.0857 44.76 83.2146 44.7859C83.3413 44.8115 83.7869 45.0248 84.0513 45.1704C84.3161 45.317 85.4876 45.9407 85.8646 46.1359C86.2402 46.3341 87.7869 47.1274 88.1383 47.2981C88.4895 47.4692 89.6257 48.0341 90.0346 48.2141C90.4461 48.3941 91.8646 49.0252 92.2672 49.1874C92.638 49.3389 93.2332 49.5567 93.5746 49.6763C93.9169 49.7944 94.3528 49.923 94.5572 49.9833C94.7632 50.0426 95.1217 50.1378 95.1472 50.23C95.1735 50.3255 95.1735 50.4618 95.105 50.607C95.0372 50.7526 94.875 51.2048 94.7965 51.3504C94.7206 51.4955 94.592 51.7785 94.4817 51.8815C94.3698 51.983 94.318 52.0359 94.2502 52.0526C94.182 52.0692 94.1746 52.06 94.1746 52.06C94.1746 52.06 94.3013 51.9074 94.3013 51.8467C94.3013 51.7878 94.2243 51.5818 94.1213 51.5137C94.0202 51.4455 93.882 51.3759 93.7717 51.3759C93.6598 51.3759 93.3102 51.3759 92.9772 51.3426C92.6428 51.3096 92.0961 51.24 91.695 51.1548C91.2924 51.0689 91.0183 51.0263 90.6857 50.8811C90.3524 50.7359 89.6169 50.3515 89.2324 50.1289C88.8465 49.9063 87.625 49.1541 87.2406 48.8967C86.8757 48.6548 85.1213 47.4015 84.855 47.2137C84.5906 47.0244 83.9576 46.5644 83.7017 46.3674C83.4446 46.1707 83.0783 45.8785 82.9328 45.8122C82.7876 45.7441 82.3591 45.5881 82.2124 45.5289C82.0687 45.47 81.9054 45.4185 81.8628 45.3244C81.8206 45.2307 81.8372 45.0929 81.8372 45.0929Z" fill="#FFFFFE"/>
<path fill-rule="evenodd" clip-rule="evenodd" d="M79.9732 46.2222C79.9732 46.2222 80.3062 46.2389 80.4514 46.2056C80.5965 46.1708 80.904 46.0845 80.9991 46.0845C81.0932 46.0845 81.2721 46.0511 81.4425 46.1267C81.6136 46.2056 82.0499 46.4537 82.274 46.6326C82.4947 46.8126 83.4273 47.53 83.7177 47.7434C84.0084 47.9567 85.4099 48.9497 85.6914 49.1448C85.9747 49.3419 87.2473 50.1878 87.5895 50.3937C87.9332 50.5993 88.5643 50.9841 88.8714 51.1626C89.1803 51.3426 89.5225 51.5137 89.6162 51.6078C89.7103 51.703 89.8295 51.7952 89.7358 52.0104C89.6403 52.2222 89.3695 52.6597 89.2999 52.7626C89.2317 52.8656 89.0425 53.0534 88.9503 53.1197C88.8547 53.1893 88.8125 53.2059 88.8125 53.2059C88.8125 53.2059 88.958 53.0441 88.9306 52.9319C88.9065 52.8215 88.838 52.6597 88.6669 52.5656C88.4962 52.4719 88.1543 52.4371 87.8984 52.3763C87.6425 52.3174 86.6917 52.086 86.3258 51.9845C85.9562 51.8815 85.6491 51.7952 85.4191 51.6245C85.1877 51.4534 84.5821 50.89 84.2914 50.6237C84.001 50.3604 83.3832 49.7778 83.0336 49.4611C82.684 49.1448 81.9651 48.4697 81.7091 48.2234C81.4521 47.9752 80.751 47.3589 80.6299 47.2226C80.5121 47.0848 80.2214 46.8126 80.1351 46.7263C80.0488 46.6415 79.9821 46.6489 79.9306 46.563C79.8795 46.4797 79.9051 46.3508 79.9217 46.3163C79.9399 46.2811 79.9732 46.2222 79.9732 46.2222Z" fill="#FFFFFE"/>
<path fill-rule="evenodd" clip-rule="evenodd" d="M77.8271 47.65L77.9042 47.3926C77.9301 47.3078 77.9301 47.2563 77.9301 47.2563C77.9301 47.2563 78.2297 47.2729 78.4686 47.2396C78.7083 47.2048 78.8364 47.1459 79.0409 47.1626C79.2468 47.1807 79.3409 47.2229 79.4434 47.4274C79.5464 47.6333 79.8534 47.9663 80.0675 48.1722C80.2809 48.3766 81.316 49.3329 81.6323 49.6344C81.9472 49.9326 82.9475 50.8815 83.3001 51.1978C83.6486 51.5141 84.1268 51.9318 84.2553 52.0603C84.3838 52.1892 84.6835 52.48 84.7535 52.5659C84.8201 52.6507 84.8034 52.8218 84.726 52.9489C84.6505 53.0778 84.4868 53.3426 84.3672 53.4548C84.2479 53.5666 83.9901 53.7452 83.9901 53.7452C83.9901 53.7452 84.0857 53.5574 84.0601 53.4711C84.0346 53.3848 83.8453 53.2155 83.709 53.1637C83.5712 53.1141 82.9842 52.9581 82.7264 52.8826C82.4694 52.8037 81.9049 52.5829 81.7516 52.4629C81.5971 52.3437 80.9223 51.5322 80.7679 51.3429C80.6134 51.1552 80.0246 50.3863 79.8205 50.12C79.6146 49.8552 79.1605 49.2226 78.912 48.9078C78.6653 48.59 78.2809 48.0859 78.1783 47.9829C78.0753 47.8815 78.0586 47.8285 77.9649 47.7618C77.8694 47.6922 77.8271 47.65 77.8271 47.65Z" fill="#FFFFFE"/>
<path fill-rule="evenodd" clip-rule="evenodd" d="M75.7334 47.9233C75.7334 47.9233 76.109 47.9733 76.3223 47.9733C76.5375 47.9733 76.7345 47.9493 76.8282 47.9659C76.9204 47.9826 77.0415 47.9733 77.1356 48.0856C77.2293 48.1974 77.2804 48.393 77.3227 48.5048C77.3656 48.6167 78.0493 49.5807 78.1615 49.7356C78.2719 49.8882 78.7593 50.5389 78.9741 50.8222C79.1878 51.1037 79.769 51.8467 79.9386 52.0707C80.1097 52.2919 80.4534 52.6415 80.5378 52.77C80.6245 52.8989 80.8449 53.2152 80.8786 53.2833C80.9149 53.3511 80.8282 53.4452 80.7771 53.5133C80.7256 53.583 80.6245 53.7022 80.5197 53.8037C80.4167 53.9067 80.2641 54.0185 80.2215 54.0352C80.1789 54.0522 80.2382 53.9159 80.2475 53.8385C80.2545 53.7615 80.2064 53.6644 80.0764 53.5663C79.8978 53.4285 79.6401 53.3256 79.4434 53.25C79.2467 53.1726 78.8338 53.0485 78.5552 52.9319C78.2904 52.8215 78.1464 52.743 78.0419 52.6248C77.9041 52.4704 77.6227 51.9496 77.4608 51.6589C77.2971 51.3685 76.819 50.4693 76.6993 50.2319C76.5801 49.9911 76.5193 49.8456 76.5027 49.7004C76.4845 49.5552 76.4767 49.0267 76.4256 48.8893C76.3741 48.753 76.2197 48.5122 76.1271 48.4367C76.0319 48.3596 75.9986 48.3504 75.9564 48.3245C75.9123 48.3004 75.7671 48.2563 75.7671 48.2563C75.7671 48.2563 75.7501 48.0689 75.7501 48.0263C75.7501 47.9826 75.7334 47.9233 75.7334 47.9233Z" fill="#FFFFFE"/>
<path fill-rule="evenodd" clip-rule="evenodd" d="M75.6055 50.7358C75.6055 50.7358 75.8444 51.1384 75.9292 51.2744C76.0155 51.4107 76.2381 51.7029 76.3488 51.924C76.4603 52.1462 76.8025 52.711 76.8962 52.8988C76.9888 53.0862 77.1095 53.2573 77.0929 53.4544C77.0751 53.651 76.9129 53.8825 76.8629 53.9747C76.8103 54.0703 76.8025 54.1729 76.6814 54.2655C76.5621 54.3607 76.3744 54.394 76.3744 54.394C76.3744 54.394 76.4936 54.2744 76.5029 54.164C76.5103 54.0536 76.4181 53.8899 76.3577 53.8129C76.2984 53.7373 76.161 53.5995 76.0081 53.5221C75.8536 53.4466 75.5447 53.2832 75.5114 53.1892C75.4766 53.0955 75.4677 52.9925 75.5447 52.8047C75.6477 52.5551 75.631 52.3084 75.5888 52.1129C75.5447 51.9147 75.5114 51.8558 75.4766 51.7862C75.4432 51.7195 75.3662 51.6755 75.3662 51.6755C75.3662 51.6755 75.4858 51.2399 75.5114 51.1292L75.6055 50.7358Z" fill="#FFFFFE"/>
<path fill-rule="evenodd" clip-rule="evenodd" d="M66.5098 59.831C66.5098 59.831 67.082 59.6192 67.3472 59.4981C67.6135 59.3788 68.125 59.1577 68.4579 59.0018C68.809 58.8399 69.7235 58.3359 70.1168 58.0877C70.509 57.8392 71.0142 57.4899 71.4246 57.1477C71.8364 56.8055 72.4931 56.1988 72.7579 55.9414C73.0231 55.687 73.6483 54.9499 73.8357 54.6773C74.0235 54.4033 74.3487 53.8903 74.3487 53.8903L75.0664 54.2507C75.3753 54.4033 75.7079 54.5488 75.9305 54.5836C76.1513 54.617 76.2968 54.6429 76.5194 54.6262C76.742 54.6077 76.8283 54.5655 76.9479 54.4292C77.0672 54.2929 77.2035 54.0525 77.255 53.9236C77.3064 53.7966 77.3838 53.6255 77.3838 53.6255C77.3838 53.6255 77.6576 53.7525 77.8287 53.8147L78.6564 54.1051C78.879 54.181 79.2031 54.2418 79.3316 54.3351C79.4601 54.4292 79.4953 54.4973 79.4861 54.591C79.4768 54.6866 79.3831 54.9166 79.2983 55.0862C79.212 55.2588 78.8883 55.9414 78.7594 56.1729C78.6309 56.4044 78.1101 57.2492 77.8453 57.6259C77.5805 58.0014 76.7327 59.0625 76.4164 59.3622C76.1016 59.6618 75.7157 60.0536 75.4857 60.1733C75.2542 60.2929 74.8875 60.3625 74.6394 60.5155L73.3394 61.327C72.999 61.5418 72.5098 61.8318 72.1601 62.0122C71.809 62.1907 70.9372 62.627 70.6724 62.7555C70.4075 62.8844 70.0472 63.037 69.8779 63.1159C69.7068 63.191 69.569 63.2614 69.4327 63.2518C69.2968 63.2433 69.2027 63.1492 69.1424 63.037C69.0831 62.9262 68.6638 62.2073 68.5094 61.9259C68.3564 61.6429 67.7694 60.6425 67.6557 60.464C67.535 60.2762 67.4846 60.1825 67.2183 60.0796C67.0446 60.0129 66.9868 59.9855 66.9035 59.9855C66.8172 59.9855 66.7627 59.9977 66.6372 59.9599C66.5509 59.9344 66.5098 59.831 66.5098 59.831Z" fill="#FFFFFE"/>
<path fill-rule="evenodd" clip-rule="evenodd" d="M64.5518 60.3863C64.5518 60.3863 65.0214 60.2671 65.2529 60.1912C65.4829 60.1141 65.7399 60.0204 65.9021 59.9852C66.064 59.9508 66.1336 59.943 66.2184 60.0293C66.3043 60.1141 66.3818 60.276 66.4243 60.3956C66.4666 60.5152 66.9466 61.3449 67.1069 61.6275C67.2703 61.9075 67.7243 62.696 67.8606 62.9426C67.9984 63.1908 68.484 63.9778 68.5873 64.1493C68.6899 64.3186 68.8095 64.55 68.8943 64.6882C68.9792 64.8241 69.1169 65.1404 69.1773 65.2689C69.2366 65.3963 69.2895 65.4989 69.2455 65.6097C69.2032 65.7219 68.9203 66.226 68.861 66.3549C68.8006 66.483 68.5358 66.9523 68.5358 66.9523C68.5358 66.9523 68.5099 66.566 68.4418 66.3786C68.3721 66.1915 68.2962 66.0712 68.1603 65.9782C68.0225 65.8841 67.7577 65.8234 67.6547 65.7471C67.5536 65.6704 67.458 65.6026 67.331 65.3452C67.2021 65.0889 66.8573 64.1615 66.7403 63.8663C66.6121 63.5423 66.1851 62.4645 66.0399 62.1056C65.8944 61.7456 65.6555 61.1315 65.5432 60.986C65.4329 60.8404 65.1421 60.6271 65.0484 60.6182C64.9544 60.6104 64.8258 60.583 64.7925 60.5926C64.7562 60.5997 64.6473 60.6104 64.6473 60.6104L64.5518 60.3863Z" fill="#FFFFFE"/>
<path fill-rule="evenodd" clip-rule="evenodd" d="M79.8635 54.5063C79.8635 54.5063 80.075 54.523 80.178 54.4719C80.2813 54.42 80.5309 54.2326 80.6928 54.0781C80.855 53.9252 81.0421 53.7193 81.1032 53.6167C81.1621 53.5137 81.1876 53.4893 81.1876 53.4893C81.1876 53.4893 81.2739 53.5137 81.2739 53.5741C81.2739 53.6348 81.1032 54.1978 81.0498 54.343C80.9998 54.4896 80.8217 54.9681 80.7006 55.2241C80.5806 55.4811 80.1961 56.2244 80.0584 56.4711C79.9224 56.7196 79.2987 57.7033 79.0413 58.053C78.7858 58.4041 78.0076 59.3607 77.7687 59.627C77.5295 59.8919 76.5791 60.8148 76.3491 61.0378C76.1172 61.2582 74.4432 62.3622 74.1191 62.5589C73.7921 62.7556 72.725 63.3793 72.4758 63.5167C72.2287 63.6533 71.4765 64.0122 71.2206 64.1404C70.9635 64.2689 70.2961 64.5837 70.1339 64.6193C69.9721 64.6537 69.7843 64.6193 69.6387 64.6026C69.4939 64.5837 69.4239 64.5837 69.3743 64.5837C69.3213 64.5837 69.1335 64.6096 69.1335 64.6096L69.0576 64.4822C69.0576 64.4822 69.6817 64.2345 69.9976 64.0815C70.3143 63.9267 71.6735 63.2933 72.058 63.0719C72.4424 62.8496 73.2461 62.397 73.6561 62.1226C74.0665 61.8485 75.0502 61.1319 75.4091 60.8148C75.7676 60.4989 76.7939 59.4982 76.9724 59.2759C77.1528 59.0533 77.9728 58.2937 78.1606 58.0967C78.3498 57.9 78.6887 57.5896 78.9143 57.2582C79.1654 56.8874 79.7058 56.0081 79.821 55.7463C79.9302 55.4889 80.0584 55.283 80.0328 55.1741C80.0084 55.0619 79.9995 54.9589 79.9661 54.9426C79.9302 54.9259 79.7424 54.873 79.7424 54.873L79.821 54.643C79.845 54.5656 79.8635 54.5063 79.8635 54.5063Z" fill="#FFFFFE"/>
<path fill-rule="evenodd" clip-rule="evenodd" d="M62.6963 60.7378C62.6963 60.7378 62.8944 60.7467 63.0733 60.686C63.2533 60.6256 63.6637 60.456 63.8348 60.4382C64.0055 60.4211 64.2615 60.4211 64.3037 60.4893C64.3459 60.5593 64.4067 60.7285 64.4837 60.9419C64.5607 61.1567 65.0652 62.4393 65.1848 62.7808C65.3041 63.123 65.8689 64.4819 65.9718 64.7634C66.0729 65.0471 66.3378 65.6704 66.3729 65.7993C66.4078 65.9274 66.5255 66.2682 66.5015 66.3715C66.4755 66.4726 66.2715 66.7904 66.15 66.9689C66.0307 67.1493 65.6115 67.7141 65.6115 67.7141C65.6115 67.7141 65.5874 67.49 65.6296 67.4234C65.6718 67.3537 65.7144 67.21 65.69 67.1326C65.6644 67.0537 65.5692 66.8163 65.4418 66.713C65.3133 66.61 65.0726 66.5256 64.9441 66.4063C64.8185 66.2848 64.7563 66.2515 64.6641 65.8745C64.5685 65.4989 64.3292 64.4915 64.2537 64.1919C64.1748 63.8919 63.8678 62.4737 63.7922 62.1904C63.7148 61.9089 63.647 61.5337 63.5348 61.3882C63.4244 61.2411 63.1944 61.0374 63.0989 61.0193C63.0048 61.0026 62.8944 61.0111 62.86 61.0111C62.8248 61.0111 62.7644 61.0193 62.7644 61.0193L62.6963 60.7378Z" fill="#FFFFFE"/>
<path fill-rule="evenodd" clip-rule="evenodd" d="M60.9189 60.9001C60.9189 60.9001 61.2519 60.8667 61.3808 60.8334C61.5078 60.7964 61.8593 60.7212 62.0649 60.7212C62.2693 60.7212 62.466 60.7727 62.5008 60.9001C62.5341 61.0279 62.5852 61.396 62.6112 61.5597C62.6371 61.7216 63.0045 63.2942 63.0475 63.5245C63.0897 63.756 63.5178 65.4479 63.5601 65.696C63.6026 65.9449 63.7478 66.5349 63.7389 66.6712C63.7312 66.8071 63.7478 66.9264 63.7223 66.9705C63.6964 67.013 63.4408 67.346 63.3119 67.4734C63.1834 67.6019 62.7308 68.1756 62.7308 68.1756C62.7308 68.1756 62.6886 68.0138 62.7489 67.9349C62.8078 67.859 62.9367 67.7475 62.9201 67.6186C62.9019 67.4912 62.7823 67.2519 62.6719 67.1493C62.5597 67.0464 62.313 66.9179 62.2008 66.7982C62.0908 66.6797 62.0301 66.5849 62.0041 66.3027C61.9786 66.0201 61.8667 64.5334 61.833 64.0467C61.7982 63.559 61.6956 62.1997 61.6623 61.9953C61.6286 61.7897 61.5941 61.593 61.4582 61.4567C61.3201 61.3186 61.1838 61.2508 61.0978 61.2249C61.0126 61.1993 60.9267 61.1901 60.9267 61.1901L60.9189 60.9001Z" fill="#FFFFFE"/>
<path fill-rule="evenodd" clip-rule="evenodd" d="M59.0727 60.918C59.0727 60.918 59.4131 60.9254 59.4916 60.9002C59.5676 60.8754 59.902 60.8314 60.1394 60.8406C60.3801 60.8502 60.6379 60.9088 60.6546 61.0377C60.6713 61.1662 60.6801 61.5836 60.6876 61.8399C60.6968 62.0973 60.7994 63.421 60.8072 63.6365C60.8161 63.8499 60.9283 65.3288 60.9524 65.6873C60.9783 66.0462 61.0294 66.7391 61.0205 66.8751C61.0127 67.0132 61.0127 67.184 61.0127 67.184C61.0127 67.184 60.6194 67.5943 60.4924 67.7051C60.3635 67.8169 59.902 68.2092 59.902 68.2092C59.902 68.2092 59.9701 68.014 60.0383 67.9277C60.1064 67.8425 60.1668 67.7051 60.1157 67.6203C60.0638 67.5343 59.7127 67.1658 59.6024 67.0799C59.4916 66.9969 59.3464 66.8073 59.3283 66.6269C59.3116 66.4484 59.3964 65.2606 59.4494 64.7636C59.4994 64.2688 59.5676 63.1477 59.6024 62.7643C59.6372 62.3788 59.6872 61.9184 59.6205 61.7551C59.5509 61.5932 59.4235 61.3962 59.3209 61.3451C59.2179 61.2951 59.0635 61.2677 59.0635 61.2677L59.0727 60.918Z" fill="#FFFFFE"/>
<path fill-rule="evenodd" clip-rule="evenodd" d="M57.2429 60.8059C57.2429 60.8059 57.4911 60.8059 57.6107 60.7978C57.7303 60.7893 57.8407 60.763 58.0374 60.7726C58.2355 60.7796 58.3885 60.7726 58.534 60.8226C58.6792 60.8737 58.7911 60.9511 58.7744 61.1915C58.7566 61.4293 58.6959 62.277 58.6718 62.5159C58.6459 62.7552 58.5007 64.4819 58.5007 64.6441C58.5007 64.8059 58.4477 65.56 58.4311 65.8067C58.4188 65.9974 58.3462 66.4648 58.3281 66.6448C58.3114 66.8237 58.2177 67.123 58.2177 67.1585C58.2177 67.1919 58.1918 67.2504 58.1918 67.2504C58.1918 67.2504 57.8755 67.5078 57.7651 67.5593C57.6529 67.6107 57.6529 67.5 57.5851 67.4319C57.5166 67.3626 57.4229 67.3552 57.2596 67.2763C57.0974 67.2004 56.8492 66.9596 56.7388 66.7904C56.6285 66.6196 56.5918 66.4482 56.6614 66.1667C56.7296 65.8841 56.9688 64.9089 57.0473 64.5593C57.1233 64.2085 57.3548 63.2348 57.4307 62.8915C57.5077 62.5493 57.6455 62.0104 57.6455 61.823C57.6455 61.6348 57.5851 61.4567 57.4836 61.3615C57.3807 61.2674 57.3622 61.2507 57.2944 61.2248C57.2262 61.1993 57.1566 61.1811 57.1566 61.1811L57.2429 60.8059Z" fill="#FFFFFE"/>
<path fill-rule="evenodd" clip-rule="evenodd" d="M55.3868 60.4985C55.3868 60.4985 55.6368 60.5245 55.755 60.5245C55.8742 60.5245 56.0802 60.4985 56.3102 60.5482C56.542 60.6011 56.8157 60.6437 56.8491 60.7467C56.8839 60.8478 56.9354 60.96 56.875 61.1826C56.8157 61.4034 56.4131 63.0715 56.3465 63.3545C56.2768 63.6363 55.9698 64.96 55.9183 65.183C55.8668 65.406 55.6957 66.1667 55.6442 66.336C55.5928 66.5074 55.4913 66.833 55.4731 66.8678C55.4565 66.9011 55.2083 67.0297 55.1476 67.0552C55.0887 67.0811 55.0024 67.123 55.0024 67.123C55.0024 67.123 55.0965 66.9871 55.0631 66.9011C55.0298 66.8148 54.9342 66.7223 54.8057 66.7223C54.6787 66.7223 54.5331 66.8252 54.4302 66.7904C54.3276 66.7556 54.1657 66.6878 54.0461 66.4048C53.9265 66.1241 53.9172 66.0808 53.9594 65.8674C54.0035 65.6526 54.5331 64.3889 54.6439 64.0885C54.7557 63.7904 55.2342 62.5493 55.3539 62.2511C55.4731 61.9515 55.6368 61.5582 55.6276 61.4404C55.6187 61.3185 55.525 61.1219 55.4657 61.0634C55.405 61.0026 55.3205 60.9678 55.2842 60.9767C55.2509 60.9859 55.2083 60.9511 55.2083 60.9511L55.3868 60.4985Z" fill="#FFFFFE"/>
<path fill-rule="evenodd" clip-rule="evenodd" d="M53.5656 60.002C53.5656 60.002 53.7456 60.0612 53.926 60.0612C54.106 60.0612 54.2937 60.0534 54.4982 60.1142C54.7037 60.1731 54.9778 60.3353 55.0204 60.4471C55.0626 60.5594 54.9597 60.7712 54.84 61.0375C54.7204 61.3023 54.1652 62.7808 54.0363 63.0975C53.9078 63.4123 53.343 64.8323 53.2674 65.0305C53.1904 65.2257 52.9419 65.8245 52.8649 65.9782C52.7893 66.1323 52.7286 66.2849 52.7286 66.2849L52.4123 66.3801C52.4123 66.3801 52.4986 66.2516 52.4456 66.1749C52.3956 66.0975 52.2337 65.9353 52.1382 65.9275C52.046 65.9186 51.9175 65.9449 51.8052 65.9868C51.6689 66.0382 51.5056 66.0382 51.4467 65.9275C51.386 65.816 51.2149 65.499 51.1982 65.4227C51.1815 65.3464 51.1212 65.2345 51.2075 65.0723C51.2923 64.9105 51.8478 63.8845 51.9675 63.6949C52.0867 63.5079 52.7363 62.4134 52.8815 62.1486C53.0267 61.8838 53.3871 61.2768 53.4552 61.1401C53.5234 61.0027 53.5656 60.892 53.5156 60.7894C53.4626 60.686 53.4626 60.6349 53.4037 60.609C53.343 60.5831 53.2415 60.5664 53.2415 60.5664L53.5656 60.002Z" fill="#FFFFFE"/>
<path fill-rule="evenodd" clip-rule="evenodd" d="M60.1591 56.259H60.0154C58.1443 56.259 56.0254 55.7352 56.0254 52.7219C56.0254 49.696 58.108 49.0997 60.0847 49.0815C61.9721 49.0982 63.9761 49.7901 63.9761 52.7219C63.9761 55.3719 62.121 56.259 60.1591 56.259Z" fill="#38374A"/>
<path fill-rule="evenodd" clip-rule="evenodd" d="M59.7793 60.5712C50.8538 60.5712 44.1045 55.0694 44.1045 48.8242C44.1045 42.5761 50.8538 37.0757 59.7793 37.0757C68.7049 37.0757 75.4541 42.5761 75.4541 48.8242C75.4541 55.0694 68.7049 60.5712 59.7793 60.5712Z" fill="#FFFFFE"/>
<path fill-rule="evenodd" clip-rule="evenodd" d="M59.7566 41.2939C61.9147 41.3125 63.3695 42.1873 63.3695 44.5773C63.3695 47.0747 61.848 47.8784 59.7566 47.8921C57.7584 47.8799 56.1406 47.1654 56.1406 44.5773C56.1406 42.281 57.7814 41.3106 59.7566 41.2939Z" fill="#38374A"/>
<path fill-rule="evenodd" clip-rule="evenodd" d="M65.862 48.2265C68.0116 47.0065 68.4534 45.7728 68.2901 44.3261C67.9964 41.7135 64.4182 39.8472 59.6805 39.9046C53.9757 39.9698 50.5234 42.8291 50.5234 43.575C50.5234 44.3213 51.6542 44.512 51.6542 44.9146L51.6557 52.7731C51.6675 53.262 50.5931 53.8039 50.5931 54.3457C50.5931 54.9072 54.2679 57.6168 60.3453 57.582C65.6864 57.5516 68.7545 55.3131 68.7834 52.6324C68.8001 51.1824 67.9553 49.2298 65.862 48.2598V48.2265Z" fill="#38374A"/>
<path fill-rule="evenodd" clip-rule="evenodd" d="M59.784 37.6206C68.8066 37.6206 74.9444 43.2495 74.9444 48.8573C74.9444 54.4665 68.8066 60.0958 59.784 60.0958C50.7618 60.0958 44.627 54.4665 44.627 48.8573C44.627 43.2495 50.7618 37.6206 59.784 37.6206Z" fill="#38374A"/>
<path fill-rule="evenodd" clip-rule="evenodd" d="M60.159 56.2589H60.0153C58.1442 56.2589 56.0253 55.7352 56.0253 52.7219C56.0253 49.696 58.1079 49.0997 60.0846 49.0815C61.972 49.0982 63.976 49.7901 63.976 52.7219C63.976 55.3719 62.1208 56.2589 60.159 56.2589ZM65.862 48.2264C68.0116 47.0078 68.4534 45.7726 68.2901 44.326C67.9964 41.7134 64.4168 39.8486 59.679 39.903C53.9757 39.9712 50.5234 42.8289 50.5234 43.5749C50.5234 44.3212 51.6542 44.5134 51.6542 44.9145L51.6557 52.7749C51.6675 53.2619 50.5931 53.8052 50.5931 54.3456C50.5931 54.9089 54.2679 57.6167 60.3453 57.5819C65.6864 57.553 68.7546 55.313 68.7834 52.6323C68.7986 51.1838 67.9553 49.2297 65.862 48.2597V48.2264ZM59.7564 41.2938C61.9146 41.3123 63.3679 42.1871 63.3679 44.5771C63.3679 47.0745 61.8479 47.8782 59.7564 47.8919C57.7583 47.8797 56.1405 47.1652 56.1405 44.5771C56.1405 42.2808 57.7812 41.3104 59.7564 41.2938Z" fill="#FFFFFE"/>
</g>
</svg>
