<svg width="120" height="120" viewBox="0 0 120 120" fill="none" xmlns="http://www.w3.org/2000/svg">
<g opacity="0.25">
<path fill-rule="evenodd" clip-rule="evenodd" d="M16.0337 46.8103C13.4354 48.1372 11.5004 49.5187 10.0635 51.011C7.74188 53.4986 6.41504 56.3177 6.41504 58.8607C6.41504 59.3028 6.47038 59.8002 6.52571 60.1869C7.07846 62.8406 7.96323 64.1674 9.12343 65.2176C11.4457 67.3732 14.1541 67.5392 14.2642 67.5392C14.5962 67.5392 14.9276 67.3179 14.9276 66.9312C14.9276 66.5444 14.7069 66.3784 14.4302 66.3231C14.3195 66.2677 12.7166 65.9911 11.2244 63.8354C10.5609 63.0066 9.95286 61.8458 9.6768 59.3028C9.12343 55.1569 12.2192 50.3475 16.9178 47.8605C20.345 45.9809 24.9883 45.3728 29.3556 46.0362C33.7775 46.8103 35.9885 47.8605 38.6975 50.5689C41.2952 53.2219 43.0088 57.7552 43.0088 62.0665C43.0088 62.2878 43.0088 62.5092 42.9535 62.6746C42.8981 64.9962 42.3454 69.3635 39.471 73.122C36.0992 77.6553 30.4611 79.9216 22.8327 79.9216C19.6262 79.9216 16.5864 79.9763 14.5962 80.0317C20.511 76.9919 24.2695 68.3127 27.1446 61.7904C27.918 59.9108 28.6368 58.2526 29.3002 57.0364C32.396 51.177 35.9332 50.9556 36.0438 50.9556C36.3205 50.9556 36.5413 50.6796 36.5413 50.4582C36.5413 50.1268 36.2652 49.9055 36.0438 49.9055C35.7125 49.9055 31.3452 49.4634 26.7019 53.8306C24.9883 55.4335 23.4961 57.8659 22.2246 60.961C20.0136 66.3784 18.1893 70.5797 16.6965 73.4541C15.5357 75.7757 14.0988 78.2074 12.3299 79.0922C10.3402 80.1424 8.07328 80.0317 8.07328 80.0317C8.01794 80.0317 7.68654 80.0317 7.46519 80.253C7.35514 80.3637 7.24447 80.5297 7.24447 80.8058C7.24447 81.1372 7.35514 81.3585 7.46519 81.4692C7.68654 81.6352 7.90727 81.6352 8.01794 81.6352C8.07328 81.6352 12.3299 81.7453 23.1641 81.7453C32.34 81.7453 39.1396 79.5896 43.3402 75.3884C47.2654 71.5745 48.0942 66.7652 48.0942 63.4487C48.0942 58.6393 46.1599 53.7753 42.8428 50.4582C39.0289 46.6443 35.4911 45.0968 29.4656 44.4333C24.933 43.9906 19.9029 44.8754 16.0337 46.8103Z" fill="#38374A"/>
<path fill-rule="evenodd" clip-rule="evenodd" d="M62.356 57.147H62.4113C56.4971 57.147 50.3056 62.6191 48.5373 69.308C47.5972 72.9012 48.0946 76.3837 49.9189 78.7047C51.4117 80.6396 53.6227 81.6898 56.1651 81.6898C62.0246 81.6898 68.2714 76.2176 70.0397 69.5287C70.9798 65.8809 70.4824 62.4537 68.6581 60.0767C67.1653 58.1971 64.9549 57.147 62.356 57.147ZM54.1201 79.7555C53.4014 79.4235 52.9039 78.7607 52.6279 77.8206C51.7431 75.1675 52.5172 70.9109 54.5068 66.9864C57.2706 61.4583 62.0246 57.7551 64.5676 59.0813C65.231 59.4133 65.6731 60.0214 66.0045 60.9609C66.8339 63.6145 66.0598 67.8705 64.0702 71.8504C61.1958 77.4338 56.6625 81.0817 54.1201 79.7555Z" fill="#38374A"/>
<path fill-rule="evenodd" clip-rule="evenodd" d="M105.141 57.4229C101.603 57.5335 94.749 59.9105 91.3218 68.5337C89.4976 73.1217 90.327 76.1068 91.3772 77.8757C92.8694 80.308 95.3571 81.4135 97.1813 81.6349C104.091 82.4083 109.508 73.7851 109.674 73.5091C109.84 73.2324 109.784 72.735 109.342 72.4583C108.845 72.1822 108.402 72.403 108.237 72.6796C108.237 72.735 103.538 80.0867 98.0654 79.976C95.9098 79.9213 94.8596 78.5391 94.6936 75.554C94.6936 75.4434 94.6936 75.2774 94.6936 75.1673C94.6936 73.3984 95.2464 71.5741 95.5231 70.9107C97.3473 71.0214 106.689 71.3528 109.895 64.7198C110.725 62.9509 110.725 61.182 109.784 59.7445C108.845 58.2523 107.076 57.4229 105.141 57.4229ZM103.925 59.1918C104.975 58.805 105.86 58.9157 106.633 59.4131C107.076 59.6892 107.407 60.1319 107.463 60.6846C107.629 61.5688 107.352 63.1717 105.196 65.936C102.322 69.5285 97.6787 69.4185 96.1865 69.3078C98.5075 63.0063 101.714 59.9105 103.925 59.1918Z" fill="#38374A"/>
<path fill-rule="evenodd" clip-rule="evenodd" d="M85.7384 57.9203C85.573 58.197 85.4623 58.529 85.4623 58.8051C85.4623 59.1365 85.573 59.4132 85.7384 59.6892C86.0151 60.0212 86.4571 60.0766 86.7891 60.0766C86.8445 60.0766 87.0099 60.0766 87.1205 60.1319C88.3921 60.574 88.8341 62.3982 88.8895 64.1118C88.9448 65.0513 88.5027 68.3124 88.0053 69.4186C85.0202 75.9408 80.3769 80.4188 77.0051 79.9213C76.3417 79.8107 75.9543 79.534 75.7336 79.0919C74.9595 77.5997 75.9543 74.1725 78.3313 69.6393C78.9947 68.4231 82.1458 62.2322 80.2662 58.9711C79.6582 57.8103 78.4973 57.2022 76.8391 57.0915C72.0851 56.8148 70.2608 60.2426 70.1502 60.408C70.0395 60.6847 70.0395 61.0714 70.3715 61.3481C70.8136 61.6795 71.201 61.4581 71.3663 61.2928C71.4217 61.2374 73.7987 58.3624 76.065 58.8604C76.2863 58.9158 76.397 58.9711 76.4517 59.1918C77.2258 61.0161 74.2961 67.0416 73.3566 68.9759C72.4718 70.8554 70.1502 76.3835 72.1404 79.4233C73.0246 80.8608 74.6281 81.5796 76.8944 81.6349C85.0756 81.8556 90.327 69.1419 91.0457 65.7147C91.0457 65.5487 92.1506 60.9054 90.4924 58.529C89.9396 57.6996 89.1655 57.2575 88.226 57.0915C86.6231 56.8702 85.9597 57.5336 85.7384 57.9203Z" fill="#38374A"/>
<path fill-rule="evenodd" clip-rule="evenodd" d="M111.442 75.4989H111.664C111.995 75.4989 112.327 75.4989 112.327 75.8863C112.327 76.107 112.106 76.3283 111.83 76.3283H111.442V75.4989ZM111.221 77.4338H111.442V76.4937H111.774L112.438 77.4338H112.714L112.05 76.4937C112.216 76.4384 112.548 76.273 112.548 75.8863C112.548 75.6096 112.438 75.4989 112.272 75.3882C112.161 75.2775 111.94 75.2775 111.664 75.2775H111.221V77.4338ZM111.83 74.6147C110.89 74.6147 110.171 75.3882 110.171 76.3837C110.171 77.3785 110.89 78.1526 111.83 78.1526C112.714 78.1526 113.433 77.3785 113.433 76.3837C113.433 75.3882 112.714 74.6147 111.83 74.6147ZM111.83 74.7801C112.603 74.7801 113.267 75.4989 113.267 76.3837C113.267 77.2678 112.603 77.9866 111.83 77.9866C111 77.9866 110.392 77.2678 110.392 76.3837C110.392 75.4989 111 74.7801 111.83 74.7801Z" fill="#38374A"/>
<path opacity="0.5" fill-rule="evenodd" clip-rule="evenodd" d="M55.8887 47.6942C55.8887 47.6942 59.9239 49.2418 64.6779 51.8401C72.361 56.1514 78.7179 56.0967 82.3111 51.0107C84.6881 47.6942 86.5676 43.825 89.7741 42.5535C89.7741 42.5535 89.2767 42.1668 89 41.8347C88.3366 41.1713 87.3971 40.4532 86.4016 40.3978C83.3065 40.1212 80.8188 44.2117 79.9347 43.7143C78.7179 43.0509 82.4771 39.8445 78.4418 36.8047C73.7985 33.2669 64.0698 42.2221 58.2657 40.9506C58.2657 40.9506 60.9187 44.1564 67.2203 44.6538C70.3714 44.8752 70.316 45.5939 70.316 45.87C70.3714 49.0211 55.8887 47.6942 55.8887 47.6942Z" fill="#38374A"/>
</g>
</svg>
