<svg width="36" height="36" viewBox="0 0 36 36" fill="none" xmlns="http://www.w3.org/2000/svg">
<path d="M35.7712 17.2997C35.4496 16.8597 27.7867 6.52734 17.9998 6.52734C8.21294 6.52734 0.549704 16.8597 0.228446 17.2992C-0.0761486 17.7166 -0.0761486 18.2827 0.228446 18.7001C0.549704 19.14 8.21294 29.4724 17.9998 29.4724C27.7867 29.4724 35.4496 19.14 35.7712 18.7004C36.0762 18.2831 36.0762 17.7166 35.7712 17.2997ZM17.9998 27.0988C10.7907 27.0988 4.54691 20.241 2.6986 17.9991C4.54452 15.7552 10.7753 8.90096 17.9998 8.90096C25.2086 8.90096 31.452 15.7576 33.3011 18.0007C31.4551 20.2445 25.2244 27.0988 17.9998 27.0988Z" fill="#561BFF"/>
<path d="M17.9998 10.8789C14.0734 10.8789 10.8789 14.0734 10.8789 17.9998C10.8789 21.9262 14.0734 25.1207 17.9998 25.1207C21.9262 25.1207 25.1207 21.9262 25.1207 17.9998C25.1207 14.0734 21.9262 10.8789 17.9998 10.8789ZM17.9998 22.747C15.3821 22.747 13.2526 20.6175 13.2526 17.9998C13.2526 15.3821 15.3821 13.2526 17.9998 13.2526C20.6175 13.2526 22.747 15.3821 22.747 17.9998C22.747 20.6175 20.6175 22.747 17.9998 22.747Z" fill="#561BFF"/>
</svg>
