<svg width="14" height="14" viewBox="0 0 14 14" fill="none" xmlns="http://www.w3.org/2000/svg">
<g clip-path="url(#clip0)">
<path d="M7.00232 3.40527C5.01724 3.40527 3.41016 5.01411 3.41016 6.99744C3.41016 8.98252 5.01899 10.5896 7.00232 10.5896C8.98741 10.5896 10.5945 8.98077 10.5945 6.99744C10.5945 5.01236 8.98566 3.40527 7.00232 3.40527ZM7.00232 9.32902C5.71374 9.32902 4.67074 8.28544 4.67074 6.99744C4.67074 5.70944 5.71432 4.66586 7.00232 4.66586C8.29032 4.66586 9.33391 5.70944 9.33391 6.99744C9.33449 8.28544 8.29091 9.32902 7.00232 9.32902Z" fill="#38374A"/>
<path d="M9.88647 0.0439756C8.59847 -0.0161078 5.40822 -0.0131911 4.11905 0.0439756C2.98622 0.0970589 1.98697 0.370642 1.18138 1.17623C-0.164951 2.52256 0.00713257 4.33673 0.00713257 6.99731C0.00713257 9.72031 -0.144534 11.4925 1.18138 12.8184C2.53297 14.1694 4.37338 13.9926 7.00247 13.9926C9.6998 13.9926 10.6308 13.9944 11.5845 13.6251C12.8813 13.1217 13.8601 11.9626 13.9558 9.88072C14.0165 8.59214 14.013 5.40248 13.9558 4.11331C13.8403 1.65573 12.5214 0.165309 9.88647 0.0439756ZM11.9252 11.9276C11.0426 12.8102 9.81822 12.7315 6.98555 12.7315C4.06888 12.7315 2.8993 12.7746 2.04588 11.9189C1.06297 10.9406 1.24088 9.36973 1.24088 6.98798C1.24088 3.76506 0.910133 1.44398 4.14472 1.27831C4.88788 1.25206 5.10663 1.24331 6.97738 1.24331L7.00363 1.26081C10.1122 1.26081 12.5511 0.935309 12.6975 4.16931C12.7308 4.90723 12.7384 5.12889 12.7384 6.99673C12.7378 9.87956 12.7926 11.0561 11.9252 11.9276Z" fill="#38374A"/>
<path d="M10.7369 4.10265C11.2005 4.10265 11.5763 3.72684 11.5763 3.26324C11.5763 2.79965 11.2005 2.42383 10.7369 2.42383C10.2733 2.42383 9.89746 2.79965 9.89746 3.26324C9.89746 3.72684 10.2733 4.10265 10.7369 4.10265Z" fill="#38374A"/>
</g>
<defs>
<clipPath id="clip0">
<path d="M0 0H14V14H0V0Z" fill="white"/>
</clipPath>
</defs>
</svg>
