<svg width="120" height="120" viewBox="0 0 120 120" fill="none" xmlns="http://www.w3.org/2000/svg">
<g opacity="0.25">
<g clip-path="url(#clip0)">
<mask id="mask0" mask-type="alpha" maskUnits="userSpaceOnUse" x="0" y="32" width="121" height="55">
<path d="M0.133789 32.9902H120.004V86.8626H0.133789V32.9902Z" fill="white"/>
</mask>
<g mask="url(#mask0)">
<path fill-rule="evenodd" clip-rule="evenodd" d="M25.4436 37.6927C26.2578 37.9399 26.9872 38.382 27.6253 38.8982C25.682 37.8108 24.5639 37.592 24.4918 37.5801L24.4708 37.5782C24.1661 37.5319 23.9139 37.4773 23.684 37.4193C24.0602 37.3413 24.4092 37.2245 24.727 37.0795C24.7278 37.0866 24.7278 37.0927 24.7278 37.098C24.876 37.5036 25.2688 37.6456 25.4436 37.6927ZM16.1448 38.3915C16.1448 38.3915 16.228 38.1502 16.2494 38.0916C16.2728 38.0334 16.5027 37.4042 17.0739 37.3449C17.0739 37.3449 17.4045 37.3247 17.9139 37.3247C17.9139 37.3247 17.6649 38.1258 16.6841 38.2986C16.6841 38.2986 16.2995 38.386 16.1448 38.3915ZM114.67 64.297C114.468 64.9964 113.471 65.9299 112.258 66.4671C110.985 67.0368 108.329 67.1862 106.794 66.9359C106.79 66.9359 103.819 66.6341 101.215 63.9141C100.395 63.0558 99.3842 62.0821 98.4516 61.1204C98.0415 60.6902 97.0317 59.6809 95.3534 59.4568C93.6047 59.2215 89.3355 59.105 87.7297 58.5725C86.6567 58.2148 85.3623 57.4877 83.6409 54.9376C82.8118 53.7164 82.2232 53.3812 81.0957 52.6658C81.0957 52.6658 81.9601 53.3528 82.4501 54.221C83.1569 55.4807 83.5138 56.3978 83.8983 57.0688C84.2834 57.7428 84.719 58.3398 85.3747 58.8678C86.1912 59.5237 86.701 59.6464 87.5851 59.7931C88.4323 59.9343 91.2898 59.9085 93.7415 59.8721C96.1537 59.8336 97.2299 60.6127 98.0224 61.2806C98.7563 61.8974 100.013 63.664 100.786 64.4399C101.708 65.3564 102.382 66.2943 104.205 67.2129C104.837 67.5342 105.872 68.3213 105.819 69.081C105.001 69.901 103.984 70.1167 101.544 69.4652C101.717 69.6339 102.993 70.9749 105.178 70.3407C104.519 70.8911 103.873 71.1254 103.199 71.0893C100.913 70.9625 98.6731 68.1464 97.4178 67.1057C96.4635 66.3166 96.3531 66.1182 94.7326 64.9964C92.271 63.2922 86.7483 63.7724 86.7483 63.7724L82.6952 63.983C74.8017 64.5794 71.4866 57.5875 70.613 56.1284C70.3083 55.6221 70.0349 55.2133 69.7726 54.8819C69.3699 54.3448 67.2131 51.5467 65.0323 50.6279C65.0323 50.6279 67.1755 52.4725 67.0488 53.6924C67.0488 53.6924 66.1602 53.2803 63.7449 53.625C53.3465 55.1072 49.8074 52.5044 49.8074 52.5044C50.2901 50.4207 48.8354 48.2817 48.8354 48.2817C49.6374 48.5364 54.7495 50.2637 59.605 49.2779C59.605 49.2779 51.7039 49.3201 46.1639 44.9009C46.1639 44.9009 49.6116 49.2207 48.7934 52.0492C48.7934 52.0492 48.2277 55.0633 42.2178 53.8479C41.5764 53.7214 40.8213 53.5069 31.8255 51.011C29.7111 50.3778 28.9808 51.3878 28.5994 51.9943C28.5832 52.8837 27.5353 53.9215 27.007 54.2466C24.2235 53.7452 25.3323 51.1623 25.3323 51.1623C23.5802 53.668 25.4153 54.7749 25.9959 54.854C25.649 55.0225 25.3199 55.144 25.0412 55.2472C25.0412 55.2472 22.7662 53.8925 24.0371 51.6724C25.8106 48.5776 27.6165 47.585 30.9273 47.2824C32.3755 47.1439 33.5826 47.0411 34.5018 47.1672C36.9035 47.4989 38.4087 48.855 42.0055 49.2043C34.3709 46.9558 34.3543 42.5343 34.3283 42.4507C34.327 42.4498 34.3251 42.4414 34.3251 42.4414C33.9021 43.901 34.1349 45.13 34.5073 46.1679C34.4016 46.1307 32.7325 45.0333 32.0962 44.6466C29.3549 42.9725 27.1913 42.6804 27.1913 42.6804C26.2822 42.565 25.8587 41.4604 25.8587 41.4604C25.8274 41.4039 25.7948 41.3522 25.7633 41.2992C24.4986 39.1399 23.249 39.097 23.249 39.097C23.6958 39.7048 23.8649 40.4771 23.9284 40.959C23.9648 41.2364 24.0001 41.7433 23.9988 41.8957C23.9761 44.2013 21.3052 44.9284 21.3052 44.9284C19.4432 47.2908 19.5403 47.3398 19.1267 47.4007C18.7106 47.4589 17.8029 46.9964 17.8029 46.9964C17.7323 46.9586 17.7136 46.8558 17.7254 46.7883C17.7481 46.6454 17.8645 46.5551 17.8645 46.5551C18.2138 46.2785 18.4986 46.003 18.4986 46.003C20.4658 43.9909 20.7018 43.0086 20.4589 41.7042C19.9617 39.0877 18.0917 39.3923 18.0917 39.3923C17.1813 39.4791 16.815 40.2299 16.815 40.2299C16.5027 40.712 15.8407 42.1874 15.8407 42.1874C15.4342 43.0671 15.02 43.2657 14.805 43.3054C14.7111 43.322 14.5381 43.3188 14.4812 43.3172C13.8488 43.2947 13.368 42.7106 13.368 42.7106C13.3388 42.6804 13.3108 42.6493 13.2892 42.6241C12.7104 42.0028 13.1299 41.1916 13.1299 41.1916C13.9093 39.375 15.424 39.1113 15.6284 39.085C15.8407 39.0583 16.5372 38.957 16.5372 38.957C18.4605 38.6334 19.3686 36.6306 19.3686 36.6306C18.0719 36.6146 17.4385 36.7001 17.4385 36.7001C16.1629 36.9233 15.7287 38.4264 15.7287 38.4241C14.6487 38.671 14.6764 37.7429 14.866 37.4592C15.0354 37.1974 15.67 36.084 19.8183 35.124C19.8183 35.124 21.864 34.5082 26.2361 34.706C26.2361 34.706 26.2361 34.706 26.0558 35.0409C25.6696 35.7723 24.1362 37.2798 21.602 36.7214C21.602 36.7214 21.6238 37.8472 24.3727 38.2505C24.3727 38.2505 26.8586 38.6945 31.0742 42.0821C31.0742 42.0821 29.0577 38.0777 25.6363 37.041C25.6363 37.041 25.2093 36.9492 25.4184 36.6814C25.4184 36.6814 27.4403 34.7816 30.2497 34.7833C30.2497 34.7833 39.0137 34.9714 44.5795 40.7942C44.5795 40.7942 44.3358 39.7817 43.4596 38.3469C43.4596 38.3469 43.4596 38.3469 43.092 37.749C43.092 37.749 43.4258 37.7869 44.3406 37.9367C44.3406 37.9367 47.6859 38.3537 55.5445 41.0672C55.5445 41.0672 61.4317 43.0009 64.6542 44.2795C69.4967 46.2081 81.6297 50.9083 89.3639 55.1253C90.7455 55.8764 104.735 63.1716 104.735 63.1716C108.609 64.9115 111.291 63.8537 111.291 63.8537C112.163 63.5225 113.745 62.307 114.437 62.9946C114.793 63.35 114.841 63.8292 114.67 64.297ZM18.9874 40.4886C18.583 40.2054 18.1304 40.1503 17.721 40.2159C17.9017 40.0818 18.1892 40.0643 18.1892 40.0643C18.3781 40.0419 19.2751 40.0072 19.6906 41.4112C19.5128 41.0086 19.2707 40.687 18.9874 40.4886ZM12.3647 40.8829C13.2492 39.5787 14.4026 38.5962 14.4154 38.5861C14.4307 38.5722 14.448 38.5602 14.4585 38.5451C14.4751 38.5279 14.4887 38.5098 14.507 38.4928C14.576 38.5741 14.6672 38.6569 14.7878 38.7252C14.1157 39.0112 12.3647 40.8829 12.3647 40.8829ZM24.8699 33.7279C39.9397 32.8356 61.8251 42.3609 62.0382 42.4578L62.0529 42.4616L62.0653 42.465C63.8989 43.1942 65.6413 43.9069 67.274 44.5882C66.8886 44.4365 64.9018 43.6467 64.8986 43.6467C61.699 42.3761 55.8173 40.4412 55.7666 40.4248C48.0545 37.7635 44.6831 37.2943 44.4429 37.2636C43.5298 37.1148 43.1818 37.0751 43.1679 37.0746L41.7781 36.9145C41.7781 36.9145 42.5404 38.149 42.5452 38.157C37.1013 34.3052 30.5841 34.1112 30.264 34.1034H30.2497C28.9373 34.1034 27.79 34.4769 26.9011 34.9048C27.0028 34.7179 27.3451 34.0776 27.3451 34.0776L26.2662 34.0305C24.3369 33.9433 22.8455 34.0108 21.7663 34.1171C23.49 33.7985 24.8335 33.7279 24.8699 33.7279ZM115.511 62.5976C114.943 61.3354 113.381 61.7457 113.381 61.7457C112.642 61.8995 111.8 62.7458 110.547 63.1165C107.858 63.9132 105.711 62.9868 105.711 62.9868C101.57 61.1976 88.26 53.5773 81.4918 50.2484C81.4918 50.2484 73.7278 46.3552 62.3164 41.8372C62.3164 41.8372 40.2408 32.1372 24.8285 33.051C24.8285 33.051 16.8387 33.4061 14.3395 37.036C14.3395 37.036 13.9129 37.5208 14.1554 38.0456C14.1554 38.0456 14.2025 38.1963 14.1025 38.2963C14.1025 38.2963 12.7594 39.5003 12.0757 40.5702C11.8355 40.959 11.5686 41.6122 12.0614 42.0699C12.0614 42.0699 12.2834 42.2424 12.3762 42.3933C12.5715 42.7119 12.7524 43.186 12.9945 43.4691C13.3423 43.8854 14.0485 44.6054 15.0421 44.4325C15.4086 44.3686 15.4874 44.2305 15.4874 44.2305C15.9847 44.7248 16.7925 44.7095 16.7925 44.7095C16.691 44.3927 16.3449 43.7728 16.2953 43.3976C16.2421 42.9849 16.3621 42.59 16.3621 42.59C16.5027 42.1214 16.7814 41.5317 17.0888 41.2339C17.3574 40.9665 18.0467 40.6612 18.602 41.0447C19.0448 41.3589 19.5731 42.3811 19.133 43.8407C19.1133 43.9512 18.6284 44.9864 18.1089 45.1434C18.1089 45.1434 18.0602 45.1592 17.9606 45.1592C17.6111 45.1592 16.9596 44.7935 16.9596 44.7935C16.9596 44.7935 16.9423 44.8862 17.0352 45.2643C17.0932 45.4811 17.1699 45.7165 17.2321 45.9006C17.2321 45.9006 17.1054 46.1272 17.0235 46.2589C16.8978 46.4842 16.7921 46.9142 17.0609 47.1101C17.0609 47.1101 18.2138 47.8944 19.3325 47.9629C20.1033 48.0093 20.3952 47.4894 20.3952 47.4894C20.9616 46.708 21.3901 46.0412 21.9878 45.4969C23.623 43.9989 25.9192 43.5969 25.9192 43.5969C26.0716 43.5771 28.5794 42.8796 32.842 46.289C31.6246 46.3867 30.1755 46.6769 29.0689 46.8737C25.9112 47.4367 23.8847 50.4163 23.295 51.6283C21.7602 54.7909 24.8976 55.8812 24.8976 55.8812C24.9271 55.8524 27.8886 55.6194 29.3189 52.4706C29.3189 52.4706 29.8424 51.076 31.2324 51.528C32.1411 51.8227 40.1744 54.6306 41.9832 55.1062C41.9832 55.1062 47.3624 56.5064 49.3884 54.0329C52.6263 55.0952 55.6647 55.6097 63.6261 54.5822C65.0077 54.4023 66.0944 54.4435 66.0944 54.4435C67.9543 54.5831 69.6513 55.8339 70.166 56.655C72.2588 60.0058 74.9149 66.6612 84.1344 65.8511L88.3037 65.473C90.8483 65.3219 92.92 65.2221 95.0214 66.3288C95.9364 66.809 96.445 66.9851 97.9966 68.4665C100.121 70.4872 102.076 72.6741 104.674 71.481C105.597 71.0565 106.633 69.4084 106.633 69.4084C106.533 68.6561 106.198 67.9325 105.372 67.3155C107.733 67.8766 113.06 68.2399 115.122 64.636C115.655 63.7962 115.712 63.0484 115.511 62.5976ZM22.7347 35.9333C22.837 35.9366 22.9516 35.9396 23.088 35.9419C23.6411 35.9509 24.2647 35.7231 24.6795 35.5298C24.9752 35.3913 25.1666 35.2709 25.1416 35.2709C24.7579 35.2669 24.1434 35.2612 23.9139 35.2612C22.9163 35.2612 22.3919 35.8265 22.3875 35.8788C22.3837 35.9112 22.521 35.9247 22.7347 35.9333Z" fill="#38374A"/>
<path fill-rule="evenodd" clip-rule="evenodd" d="M77.4217 77.0215V81.7685C77.4217 82.9975 77.2868 83.9686 76.6672 84.7805C75.6597 86.103 73.812 86.8623 68.6579 86.8623L68.6043 86.8627C63.4782 86.8627 61.6212 86.1017 60.6145 84.7826C59.995 83.9699 59.8611 82.9975 59.8611 81.7694V77.0227H63.408V81.6342C63.408 82.8718 63.5637 83.5992 64.0174 84.2374C64.7845 85.3183 66.1089 85.7085 68.4904 85.7085H68.7916C71.2826 85.7085 72.4975 85.3183 73.2646 84.237C73.7183 83.5971 73.8747 82.8386 73.8747 81.6376V77.0215H77.4217ZM112.697 78.223C114.027 78.223 114.616 78.3465 115.02 78.6494C115.405 78.9371 115.542 79.3767 115.542 80.0601V80.2392C115.542 80.856 115.395 81.3568 114.942 81.6708C114.497 81.9787 113.874 82.0468 112.74 82.0468H105.71V78.223H112.697ZM114.422 83.1833C115.755 83.1389 116.885 82.9378 117.756 82.4688C118.659 81.9822 119.089 81.0641 119.089 80.1118C119.089 78.8389 118.521 78.0235 117.484 77.5679C116.563 77.1619 115.425 77.0227 113.159 77.0227H102.163V86.5487H105.71V83.247H110.369L115.683 86.5487H120.004L114.422 83.1833ZM52.418 85.275V82.1737H55.9476V86.5471H45.6841C43.7597 86.5471 42.2434 86.3235 41.0989 85.8624C39.1921 85.0932 38.3202 83.6879 38.3202 81.7668C38.3202 79.953 39.2697 78.6945 40.4781 78.0176C41.7632 77.2974 43.2108 77.0215 45.6219 77.0215H55.5863V78.2936H46.7265C44.8277 78.2936 43.7933 78.5804 43.005 79.2216C42.3044 79.7905 41.9313 80.6429 41.9313 81.7841C41.9307 82.9637 42.3235 83.8348 43.0723 84.4058C43.8629 85.007 44.9278 85.2744 46.7557 85.2744L52.418 85.275ZM15.3315 77.0215V81.667C15.3315 83.1698 14.9866 84.0811 14.2725 84.812C13.026 86.087 10.6353 86.5475 7.25279 86.5475H0.121094V85.2689H6.68684C8.70141 85.2689 10.0628 84.9356 10.8837 84.1242C11.5053 83.5105 11.7848 82.6547 11.7848 81.3827V77.0215H15.3315ZM93.2905 84.5191H82.7824L81.0408 86.5475H78.9848L87.248 77.0215H90.744L99.0145 86.5475H95.0379L93.2905 84.5191ZM83.8389 83.2879H92.2302L88.0281 78.4094L83.8389 83.2879ZM31.2557 84.5191H20.7476L19.0059 86.5475H16.9501L25.2143 77.0215H28.7086L36.98 86.5475H33.0036L31.2557 84.5191ZM21.8047 83.2879H30.1955L25.9938 78.4094L21.8047 83.2879Z" fill="#38374A"/>
</g>
</g>
</g>
<defs>
<clipPath id="clip0">
<rect width="120" height="120" fill="white"/>
</clipPath>
</defs>
</svg>
