<svg width="164" height="73" viewBox="0 0 164 73" fill="none" xmlns="http://www.w3.org/2000/svg">
<rect x="10" y="36.5" width="13.25" height="26.5" fill="#38374A"/>
<path opacity="0.75" fill-rule="evenodd" clip-rule="evenodd" d="M10 52.2657L10 36.5H23.25V60.2939C18.305 58.5139 13.8139 55.7624 10 52.2657Z" fill="url(#paint0_linear)"/>
<path fill-rule="evenodd" clip-rule="evenodd" d="M36.5 63C51.1355 63 63 51.1355 63 36.5C63 21.8645 51.1355 10 36.5 10C21.8645 10 10 21.8645 10 36.5C10 51.1355 21.8645 63 36.5 63ZM36.5 49.75C43.8178 49.75 49.75 43.8178 49.75 36.5C49.75 29.1822 43.8178 23.25 36.5 23.25C29.1822 23.25 23.25 29.1822 23.25 36.5C23.25 43.8178 29.1822 49.75 36.5 49.75Z" fill="#38374A"/>
<rect x="153.887" y="36.5" width="13.25" height="26.5" transform="rotate(-180 153.887 36.5)" fill="#38374A"/>
<path opacity="0.75" fill-rule="evenodd" clip-rule="evenodd" d="M153.887 19.8951L153.887 36.5L140.637 36.5L140.637 11.8767C145.581 13.6537 150.072 16.4019 153.887 19.8951Z" fill="url(#paint1_linear)"/>
<path fill-rule="evenodd" clip-rule="evenodd" d="M127.387 10C112.751 10 100.887 21.8645 100.887 36.5C100.887 51.1355 112.751 63 127.387 63C142.022 63 153.887 51.1355 153.887 36.5C153.887 21.8645 142.022 10 127.387 10ZM127.387 23.25C120.069 23.25 114.137 29.1822 114.137 36.5C114.137 43.8178 120.069 49.75 127.387 49.75C134.704 49.75 140.637 43.8178 140.637 36.5C140.637 29.1822 134.704 23.25 127.387 23.25Z" fill="#38374A"/>
<rect x="63" y="10" width="13.25" height="53" fill="#38374A"/>
<path fill-rule="evenodd" clip-rule="evenodd" d="M112.895 10H95.3104L63.2891 62.5267V62.9997H78.9422L112.895 10Z" fill="#38374A"/>
<path opacity="0.75" d="M63 62.9994L76.25 41.3135V28.668L63 62.9994Z" fill="url(#paint2_linear)"/>
<defs>
<linearGradient id="paint0_linear" x1="10" y1="63.2248" x2="36.5" y2="63.6205" gradientUnits="userSpaceOnUse">
<stop/>
<stop offset="1" stop-opacity="0"/>
</linearGradient>
<linearGradient id="paint1_linear" x1="153.887" y1="9.77518" x2="127.387" y2="9.37952" gradientUnits="userSpaceOnUse">
<stop/>
<stop offset="1" stop-opacity="0"/>
</linearGradient>
<linearGradient id="paint2_linear" x1="80.9554" y1="31.2926" x2="62.7433" y2="60.5604" gradientUnits="userSpaceOnUse">
<stop/>
<stop offset="1" stop-opacity="0"/>
</linearGradient>
</defs>
</svg>
