<svg width="12" height="12" viewBox="0 0 12 12" fill="none" xmlns="http://www.w3.org/2000/svg">
<path d="M11.0526 7.90106C10.3124 7.90106 9.58738 7.78548 8.90021 7.55873C8.56484 7.44315 8.184 7.53221 7.96359 7.75706L6.60127 8.7859C5.03811 7.9516 4.03769 6.95179 3.21475 5.4L4.21579 4.0699C4.46779 3.8179 4.55812 3.44905 4.45012 3.10358C4.22148 2.412 4.10528 1.68632 4.10528 0.947369C4.10528 0.425043 3.68023 0 3.15791 0H0.947369C0.425043 0 0 0.425043 0 0.947369C0 7.04147 4.95853 12 11.0526 12C11.575 12 12 11.575 12 11.0526V8.84843C12 8.3261 11.575 7.90106 11.0526 7.90106Z" fill="#561BFF"/>
</svg>
