<svg width="120" height="120" viewBox="0 0 120 120" fill="none" xmlns="http://www.w3.org/2000/svg">
<g opacity="0.25">
<path fill-rule="evenodd" clip-rule="evenodd" d="M100.85 64.1623C110.127 59.6228 115.244 54.4554 114.488 50.1764C112.897 41.1814 85.6361 39.7327 57.5027 44.7273C44.6272 47.0135 32.3139 50.445 23.9779 53.8479C24.4206 53.8199 24.7302 53.8404 24.7302 53.8404C28.3333 53.9399 28.1132 56.1801 28.1132 56.1801L28.1188 57.5486H25.2469V56.6197C25.2469 55.9613 24.4442 55.9165 24.4442 55.9165C23.8299 55.9165 23.6863 56.3343 23.6863 56.3343C23.3462 56.971 23.9282 57.5206 23.9282 57.5206C24.2247 57.8502 25.7188 58.5422 25.7188 58.5422C26.2026 58.7293 26.9823 59.2125 26.9823 59.2125C28.4434 60.091 28.311 61.7604 28.311 61.7604V62.8597C28.1356 65.5836 24.3789 65.5065 24.3789 65.5065C20.4457 65.5065 20.5321 62.9256 20.5321 62.9256V61.5764H23.5924V62.5059C23.5924 63.2974 24.3566 63.3322 24.3566 63.3322C25.1916 63.3646 25.2618 62.5569 25.2618 62.5569C25.3756 61.7722 24.5108 61.2773 24.5108 61.2773C23.6533 60.8384 22.2258 60.0692 22.2258 60.0692C21.5226 59.6079 21.2366 59.1907 21.2366 59.1907C20.7317 58.5534 20.7646 57.5648 20.7646 57.5648V56.7074C20.7646 55.5217 21.0836 55.181 21.0836 55.181C21.0973 55.1548 21.1097 55.1312 21.1253 55.1057C10.8488 59.8541 4.5578 65.3592 5.3549 69.885C6.97148 79.0653 32.6813 80.2697 62.9195 75.6127C76.8419 73.4688 88.9595 69.5219 98.1298 65.4344C98.0639 65.4375 97.9949 65.4375 97.9271 65.4375C97.9271 65.4375 94.2214 65.7372 94.1338 62.749V56.971C94.1338 56.971 93.6724 53.7857 97.8252 53.7857C97.8252 53.7857 100.527 53.698 101.241 55.3016C101.241 55.3016 101.594 55.7312 101.5 57.5045H98.6216V56.5955C98.6216 56.5955 98.616 55.8618 97.8687 55.8618C97.8687 55.8618 97.089 55.8954 97.089 56.5103V62.486C97.089 62.486 97.0554 63.2881 97.9346 63.2881C97.9346 63.2881 98.6558 63.2719 98.6558 62.4282V60.7003H97.8706V59.0912H101.569V62.486C101.569 62.486 101.56 63.1998 101.263 63.617C101.263 63.617 100.963 64.0759 100.85 64.1623ZM90.3068 65.131H86.9151L83.8896 58.4576H83.7622L83.9325 65.1304H81.0873V54.2185H84.5823L87.5052 60.8377H87.6301L87.4243 54.2172H90.3068V65.131ZM72.471 62.4207C72.471 63.3453 73.3489 63.2987 73.3489 63.2987C74.1839 63.2987 74.1423 62.3977 74.1423 62.3977V54.1712H77.1926V62.4972C77.1926 65.4972 73.393 65.4525 73.393 65.4525C69.0208 65.4525 69.341 62.3542 69.341 62.3542V54.1706H72.4616L72.471 62.4207ZM62.884 57.5486V56.6197C62.884 55.9606 62.0826 55.9165 62.0826 55.9165C61.467 55.9165 61.3246 56.3343 61.3246 56.3343C60.9839 56.971 61.5665 57.5206 61.5665 57.5206C61.8631 57.8496 63.3566 58.5422 63.3566 58.5422C63.8397 58.7287 64.62 59.2125 64.62 59.2125C66.0811 60.091 65.9493 61.7604 65.9493 61.7604V62.8597C65.774 65.5836 62.0173 65.5072 62.0173 65.5072C58.084 65.5072 58.1692 62.9256 58.1692 62.9256V61.5764H61.2301V62.5059C61.2301 63.2974 61.9949 63.3322 61.9949 63.3322C62.8293 63.3646 62.8996 62.5569 62.8996 62.5569C63.014 61.7722 62.1485 61.2773 62.1485 61.2773C61.2917 60.8377 59.8635 60.0692 59.8635 60.0692C59.1597 59.6079 58.8749 59.1907 58.8749 59.1907C58.3694 58.5528 58.4017 57.5642 58.4017 57.5642V56.7068C58.4017 55.5211 58.7207 55.1803 58.7207 55.1803C59.534 53.6533 62.368 53.8398 62.368 53.8398C65.9717 53.9393 65.7516 56.1801 65.7516 56.1801L65.7572 57.5486H62.884ZM47.8119 54.2154L48.7309 60.188H48.9559L49.9178 54.216H54.6681L54.9758 65.1291H52.1195L52.0511 56.9088H51.854L50.3661 65.1273H47.3785L45.872 56.9063H45.6488L45.6146 65.1298H42.7744L43.0138 54.2154H47.8119ZM36.6662 65.118L35.547 56.657H35.2965L34.1767 65.118H31.1188L33.0084 54.2066H37.8345L39.7246 65.118H36.6662Z" fill="#38374A"/>
</g>
</svg>
