<svg width="30" height="30" viewBox="0 0 30 30" fill="none" xmlns="http://www.w3.org/2000/svg">
<path d="M7.01936 17.7575H12.5765C12.9226 17.7575 13.2033 17.4769 13.2033 17.1307C13.2033 16.7845 12.9226 16.5039 12.5765 16.5039H7.01936C6.67324 16.5039 6.39258 16.7845 6.39258 17.1307C6.39258 17.4769 6.6733 17.7575 7.01936 17.7575Z" fill="#561BFF"/>
<path d="M11.083 19.638C11.083 19.9842 11.3637 20.2648 11.7098 20.2648H14.0288C14.3749 20.2648 14.6555 19.9842 14.6555 19.638C14.6555 19.2918 14.3749 19.0112 14.0288 19.0112H11.7098C11.3637 19.0113 11.083 19.2919 11.083 19.638Z" fill="#561BFF"/>
<path d="M5.56721 20.2648H5.6299C5.97602 20.2648 6.25668 19.9842 6.25668 19.638C6.25668 19.2918 5.97602 19.0112 5.6299 19.0112H5.56721C5.22109 19.0112 4.94043 19.2918 4.94043 19.638C4.94043 19.9842 5.22109 20.2648 5.56721 20.2648Z" fill="#561BFF"/>
<path d="M9.51594 19.0112H8.6385C8.29238 19.0112 8.01172 19.2918 8.01172 19.638C8.01172 19.9842 8.29238 20.2648 8.6385 20.2648H9.51594C9.86205 20.2648 10.1427 19.9842 10.1427 19.638C10.1427 19.2918 9.86205 19.0112 9.51594 19.0112Z" fill="#561BFF"/>
<path d="M27.5766 1.16992H12.827C11.4908 1.16992 10.4036 2.25707 10.4036 3.59336V11.3855H2.42344C1.08715 11.3855 0 12.4725 0 13.8089V22.9595C0 24.2958 1.08715 25.3829 2.42344 25.3829H3.8802L7.20721 28.6504C7.32674 28.7679 7.48529 28.83 7.64648 28.83C7.72816 28.83 7.81049 28.814 7.88877 28.7812C8.12162 28.6836 8.27309 28.4557 8.27309 28.2033V25.383H17.1729C18.5092 25.383 19.5964 24.2958 19.5964 22.9595V15.1673H21.7269V17.9877C21.7269 18.2402 21.8783 18.468 22.1112 18.5656C22.1895 18.5985 22.2718 18.6145 22.3535 18.6145C22.5146 18.6145 22.6732 18.5522 22.7927 18.4348L26.1197 15.1673H27.5765C28.9128 15.1673 29.9999 14.0802 29.9999 12.7439V3.5933C30 2.25701 28.9129 1.16992 27.5766 1.16992ZM18.3429 22.9595C18.3429 23.6046 17.8181 24.1294 17.173 24.1294H7.64637C7.30025 24.1294 7.01959 24.41 7.01959 24.7562V26.7093L4.5757 24.3091C4.45852 24.1939 4.30084 24.1294 4.13654 24.1294H2.42344C1.77832 24.1294 1.2535 23.6046 1.2535 22.9595V13.8089C1.2535 13.1638 1.77832 12.6389 2.42344 12.6389H10.4036V12.7439C10.4036 13.1593 10.5087 13.5504 10.6935 13.8925H3.13377C2.78766 13.8925 2.50699 14.1731 2.50699 14.5193V22.2492C2.50699 22.5954 2.78766 22.876 3.13377 22.876H16.4627C16.8088 22.876 17.0895 22.5954 17.0895 22.2492V15.1673H18.3429V22.9595ZM15.836 15.1673V21.6224H3.76049V15.1459L15.836 15.1673ZM28.7465 12.7439C28.7465 13.389 28.2217 13.9138 27.5766 13.9138H25.8635C25.6992 13.9138 25.5415 13.9783 25.4243 14.0935L22.9804 16.4937V14.5406C22.9804 14.1944 22.6997 13.9138 22.3536 13.9138H12.827C12.1819 13.9138 11.6571 13.389 11.6571 12.7439V3.5933C11.6571 2.94818 12.1819 2.42336 12.827 2.42336H27.5766C28.2217 2.42336 28.7465 2.94818 28.7465 3.5933V12.7439Z" fill="#561BFF"/>
<path d="M26.8658 3.67676H13.5369C13.1908 3.67676 12.9102 3.95736 12.9102 4.30354V12.0335C12.9102 12.3796 13.1908 12.6602 13.5369 12.6602H26.8658C27.212 12.6602 27.4926 12.3796 27.4926 12.0335V4.30348C27.4926 3.95736 27.212 3.67676 26.8658 3.67676ZM26.2391 11.4067H14.1637V4.93025H26.2391V11.4067Z" fill="#561BFF"/>
<path d="M17.4237 7.54164H22.9809C23.327 7.54164 23.6076 7.26103 23.6076 6.91486C23.6076 6.56869 23.327 6.28809 22.9809 6.28809H17.4237C17.0775 6.28809 16.7969 6.56869 16.7969 6.91486C16.7969 7.26103 17.0775 7.54164 17.4237 7.54164Z" fill="#561BFF"/>
<path d="M24.3699 10.0485H24.4326C24.7788 10.0485 25.0594 9.76787 25.0594 9.4217C25.0594 9.07553 24.7788 8.79492 24.4326 8.79492H24.3699C24.0238 8.79492 23.7432 9.07553 23.7432 9.4217C23.7432 9.76787 24.0238 10.0485 24.3699 10.0485Z" fill="#561BFF"/>
<path d="M21.3616 8.79541H20.4842C20.1381 8.79541 19.8574 9.07602 19.8574 9.42219C19.8574 9.76836 20.1381 10.049 20.4842 10.049H21.3616C21.7078 10.049 21.9884 9.76836 21.9884 9.42219C21.9884 9.07602 21.7078 8.79541 21.3616 8.79541Z" fill="#561BFF"/>
<path d="M15.9715 10.0485H18.2905C18.6366 10.0485 18.9172 9.76787 18.9172 9.4217C18.9172 9.07553 18.6366 8.79492 18.2905 8.79492H15.9715C15.6254 8.79492 15.3447 9.07553 15.3447 9.4217C15.3447 9.76787 15.6254 10.0485 15.9715 10.0485Z" fill="#561BFF"/>
</svg>
