<svg width="14" height="12" viewBox="0 0 14 12" fill="none" xmlns="http://www.w3.org/2000/svg">
<path d="M14 1.65913C13.4794 1.8875 12.9246 2.03887 12.3462 2.11237C12.9412 1.75712 13.3954 1.19887 13.6089 0.526C13.0541 0.85675 12.4416 1.09038 11.7889 1.22075C11.2621 0.659875 10.5114 0.3125 9.69238 0.3125C8.10337 0.3125 6.82412 1.60225 6.82412 3.18338C6.82412 3.41088 6.84338 3.62962 6.89062 3.83787C4.5045 3.7215 2.39313 2.57788 0.97475 0.83575C0.727125 1.26538 0.581875 1.75713 0.581875 2.2865C0.581875 3.2805 1.09375 4.16162 1.85675 4.67175C1.39562 4.663 0.94325 4.52913 0.56 4.31825C0.56 4.327 0.56 4.33838 0.56 4.34975C0.56 5.7445 1.55487 6.903 2.8595 7.16988C2.62587 7.23375 2.37125 7.26437 2.107 7.26437C1.92325 7.26437 1.73775 7.25387 1.56362 7.21537C1.9355 8.352 2.99075 9.18762 4.2455 9.21475C3.269 9.97863 2.02912 10.4389 0.686875 10.4389C0.4515 10.4389 0.22575 10.4284 0 10.3995C1.27137 11.2194 2.77813 11.6875 4.403 11.6875C9.6845 11.6875 12.572 7.3125 12.572 3.52025C12.572 3.39337 12.5676 3.27087 12.5615 3.14925C13.1311 2.745 13.6097 2.24013 14 1.65913Z" fill="#38374A"/>
</svg>
