<svg width="120" height="120" viewBox="0 0 120 120" fill="none" xmlns="http://www.w3.org/2000/svg">
<g opacity="0.25">
<g clip-path="url(#clip0)">
<path d="M51.5702 78.6226H41.9297L47.9596 41.3384H57.5995L51.5702 78.6226Z" fill="#38374A"/>
<path d="M86.5175 42.2499C84.616 41.4955 81.6 40.6626 77.8708 40.6626C68.3504 40.6626 61.6463 45.7393 61.6052 52.9975C61.5261 58.3526 66.4051 61.3269 70.0543 63.1125C73.7841 64.937 75.0519 66.1279 75.0519 67.7543C75.014 70.252 72.0381 71.4034 69.2625 71.4034C65.4135 71.4034 63.3512 70.8098 60.2171 69.4201L58.9477 68.8244L57.5986 77.1939C59.8597 78.224 64.0255 79.1381 68.3504 79.1782C78.4659 79.1782 85.0515 74.18 85.1295 66.4453C85.168 62.201 82.5916 58.9488 77.0373 56.2913C73.6655 54.5854 71.6005 53.4351 71.6005 51.6896C71.64 50.1028 73.347 48.4775 77.1533 48.4775C80.2874 48.3979 82.5901 49.1512 84.3345 49.9051L85.2065 50.301L86.5175 42.2499Z" fill="#38374A"/>
<path d="M99.3305 65.4141C100.124 63.2721 103.179 54.9823 103.179 54.9823C103.139 55.0619 103.972 52.8008 104.448 51.4127L105.122 54.6254C105.122 54.6254 106.947 63.55 107.344 65.4141C105.837 65.4141 101.235 65.4141 99.3305 65.4141ZM111.23 41.3384H103.774C101.474 41.3384 99.7269 42.0121 98.7348 44.4319L84.415 78.622H94.5305C94.5305 78.622 96.1959 74.0202 96.5538 73.0291C97.6635 73.0291 107.504 73.0291 108.931 73.0291C109.208 74.3381 110.082 78.622 110.082 78.622H119.008L111.23 41.3384Z" fill="#38374A"/>
<path d="M33.8777 41.3384L24.4365 66.7626L23.4048 61.6063C21.6593 55.6565 16.1851 49.1923 10.0762 45.9781L18.724 78.583H28.9186L44.0718 41.3384H33.8777Z" fill="#38374A"/>
<path opacity="0.5" d="M15.6693 41.3384H0.15868L0 42.0917C12.0993 45.1857 20.1124 52.6437 23.4046 61.6078L20.0328 44.4724C19.4776 42.0912 17.7717 41.4169 15.6693 41.3384Z" fill="#38374A"/>
</g>
</g>
<defs>
<clipPath id="clip0">
<rect width="119.008" height="120" fill="white"/>
</clipPath>
</defs>
</svg>
